<svg width="22" height="18" viewBox="0 0 22 18" fill="none" xmlns="http://www.w3.org/2000/svg">
<path d="M4.76 8.72667C5.92355 8.83244 6.87556 9.282 7.616 10.0753C8.35644 10.8687 8.72667 11.8736 8.72667 13.09C8.72667 14.4122 8.33 15.4964 7.53667 16.3427C6.74333 17.136 5.73844 17.5327 4.522 17.5327C3.14689 17.5327 2.03622 17.0302 1.19 16.0253C0.396666 15.0204 0 13.4602 0 11.3447C0 7.27222 1.34867 3.75511 4.046 0.793333C4.57489 0.264445 5.18311 0 5.87067 0C6.45244 0 6.95489 0.211556 7.378 0.634668C7.80111 1.00489 8.01267 1.45444 8.01267 1.98333C8.01267 2.56511 7.80111 3.06756 7.378 3.49067C6.00289 4.91866 5.13022 6.664 4.76 8.72667ZM17.9293 8.72667C19.0929 8.83244 20.0449 9.282 20.7853 10.0753C21.5258 10.8687 21.896 11.8736 21.896 13.09C21.896 14.4122 21.4993 15.4964 20.706 16.3427C19.9127 17.136 18.9078 17.5327 17.6913 17.5327C16.3162 17.5327 15.2056 17.0302 14.3593 16.0253C13.566 15.0204 13.1693 13.4602 13.1693 11.3447C13.1693 7.27222 14.518 3.75511 17.2153 0.793333C17.7442 0.264445 18.3524 0 19.04 0C19.6218 0 20.1242 0.211556 20.5473 0.634668C20.9704 1.00489 21.182 1.45444 21.182 1.98333C21.182 2.56511 20.9704 3.06756 20.5473 3.49067C19.1722 4.91866 18.2996 6.664 17.9293 8.72667Z" fill="#B3B7C2" fill-opacity="0.5"/>
</svg>
