<svg width="640" height="481" viewBox="0 0 640 481" fill="none" xmlns="http://www.w3.org/2000/svg">
<g clip-path="url(#clip0)">
<rect width="640" height="481" fill="#EBF0F3"/>
</g>
<g clip-path="url(#clip1)">
<path d="M451.053 450.926C451.053 449.524 451.519 447.655 452.92 446.721C453.853 445.786 455.72 444.852 457.121 444.852C458.521 444.852 460.388 445.319 461.322 446.721C463.656 449.056 463.656 452.794 461.322 455.13C460.389 456.065 458.521 456.999 457.121 456.999C455.721 456.999 454.32 456.532 452.92 455.13C451.519 454.196 451.053 452.794 451.053 450.926Z" fill="white" fill-opacity="0.5"/>
<path d="M100.024 445.335C103.292 445.335 105.626 448.138 105.626 450.941C105.626 454.211 102.825 456.547 100.024 456.547C96.7568 456.548 94.4227 453.744 94.4226 450.941C93.9557 447.671 96.7564 445.335 100.024 445.335ZM171.443 445.332C174.711 445.332 177.045 448.135 177.045 450.938C177.045 454.209 174.244 456.545 171.444 456.545C168.176 456.545 165.842 453.742 165.842 450.939C165.375 447.668 168.176 445.332 171.443 445.332ZM242.863 445.329C246.13 445.329 248.464 448.132 248.464 450.936C248.464 454.206 245.664 456.542 242.863 456.542C239.595 456.542 237.261 453.739 237.261 450.936C236.794 447.666 239.595 445.33 242.863 445.329ZM314.282 445.327C317.549 445.327 319.884 448.13 319.884 450.933C319.884 454.203 317.083 456.54 314.282 456.54C311.015 456.54 308.681 453.737 308.681 450.933C308.214 447.663 311.014 445.327 314.282 445.327ZM385.701 445.324C388.969 445.324 391.303 448.127 391.303 450.93C391.303 454.201 388.502 456.537 385.702 456.537C382.434 456.537 380.1 453.734 380.1 450.931C379.633 447.661 382.434 445.324 385.701 445.324Z" fill="white" fill-opacity="0.5"/>
<path d="M23.004 450.941C23.0039 449.539 23.4706 447.67 24.871 446.736C25.3378 446.269 26.2713 445.802 26.7381 445.334C27.6717 444.867 28.1385 444.867 29.0721 444.867C30.4724 444.867 31.8728 445.334 33.2733 446.736C34.6737 448.137 35.1406 450.006 34.6738 451.875C34.6739 452.342 34.6738 452.809 34.2071 452.809C34.2071 453.276 33.7403 453.276 33.7403 453.744C33.7403 454.211 33.2735 454.211 32.8068 454.678C31.8732 455.612 30.4729 456.547 28.6057 456.547C27.6721 456.547 27.2053 456.547 26.2717 456.08C25.8049 455.613 24.8713 455.146 24.4045 454.678C23.4709 454.211 23.0041 452.81 23.004 450.941Z" fill="white" fill-opacity="0.5"/>
<path d="M451.046 376.643C451.046 375.708 451.046 375.241 451.513 374.307C451.979 373.372 452.446 372.905 452.913 372.438C453.847 371.504 455.714 370.569 457.114 370.569C458.514 370.569 460.382 371.036 461.315 372.438C461.782 372.905 461.782 372.905 462.249 373.372C462.249 373.839 462.716 373.839 462.716 374.306C462.716 374.774 463.183 375.241 463.183 375.241C463.649 377.11 463.183 378.978 461.782 380.38C461.316 380.38 461.316 380.847 460.849 381.315C460.382 381.315 460.382 381.782 459.915 381.782C459.448 381.782 459.448 381.782 458.982 382.249C458.515 382.249 458.048 382.249 458.048 382.249C457.114 382.249 456.648 382.249 455.714 381.782C453.847 381.782 453.38 381.315 452.913 380.848C452.446 380.38 451.98 379.446 451.513 378.979C451.046 378.044 451.046 377.577 451.046 376.643Z" fill="white" fill-opacity="0.5"/>
<path d="M100.016 371.055C103.284 371.055 105.618 373.858 105.618 376.662C105.618 379.932 102.817 382.268 100.017 382.268C96.749 382.268 94.415 379.465 94.4148 376.662C93.9479 373.392 96.7486 371.055 100.016 371.055ZM171.435 371.053C174.703 371.053 177.037 373.856 177.037 376.659C177.037 379.929 174.237 382.265 171.436 382.266C168.168 382.266 165.834 379.463 165.834 376.659C165.367 373.389 168.168 371.053 171.435 371.053ZM242.855 371.05C246.122 371.05 248.456 373.853 248.456 376.656C248.457 379.927 245.656 382.263 242.855 382.263C239.588 382.263 237.254 379.46 237.253 376.657C236.787 373.386 239.587 371.05 242.855 371.05ZM314.274 371.048C317.542 371.047 319.876 373.851 319.876 376.654C319.876 379.924 317.075 382.26 314.275 382.26C311.007 382.261 308.673 379.457 308.673 376.654C308.206 373.384 311.007 371.048 314.274 371.048ZM385.693 371.045C388.961 371.045 391.295 373.848 391.295 376.651C391.295 379.922 388.495 382.258 385.694 382.258C382.426 382.258 380.092 379.455 380.092 376.652C379.625 373.381 382.426 371.045 385.693 371.045Z" fill="white" fill-opacity="0.5"/>
<path d="M22.9969 376.659C22.9969 375.257 23.4636 373.856 24.8639 372.454C25.3307 371.987 25.7975 371.519 26.731 371.052C27.6646 370.585 28.1314 370.585 29.065 370.585C29.5318 370.585 29.9986 370.585 29.9986 370.585C30.4654 370.585 30.9322 370.585 30.9322 371.052C31.399 371.052 31.399 371.519 31.8658 371.519C32.3326 371.519 32.3326 371.986 32.7994 372.454C35.1334 374.79 35.1336 378.527 32.7997 380.863C32.7997 380.863 32.3329 381.33 31.8661 381.798C31.3993 381.798 31.3994 382.265 30.9326 382.265C30.4658 382.265 29.999 382.265 29.999 382.732C29.5322 382.732 29.0654 382.732 29.0654 382.732C28.1318 382.732 27.665 382.732 26.7314 382.265C26.2646 381.798 25.331 381.331 24.8642 380.863C23.4638 379.929 22.997 378.06 22.9969 376.659Z" fill="white" fill-opacity="0.5"/>
<path d="M451.044 302.356C451.044 301.421 451.044 300.954 451.511 300.02C451.977 299.085 452.444 298.618 452.911 298.151C453.845 297.216 455.712 296.282 457.112 296.282C457.579 296.282 458.046 296.282 458.046 296.282C458.512 296.282 458.979 296.282 458.979 296.749C459.446 296.749 459.913 297.216 459.913 297.216C460.38 297.216 460.38 297.683 460.847 297.683C461.313 298.15 461.313 298.15 461.78 298.618C461.78 299.085 462.247 299.085 462.247 299.552C462.247 300.019 462.714 300.486 462.714 300.486C463.181 302.355 462.714 304.224 461.314 305.626C460.847 306.093 460.847 306.093 460.38 306.56C459.913 306.56 459.913 307.027 459.446 307.027C458.98 307.027 458.98 307.495 458.513 307.495C458.046 307.495 457.579 307.495 457.579 307.495C456.179 307.495 454.779 307.028 453.378 305.626C452.911 305.159 452.444 304.692 451.978 303.757C451.044 303.757 451.044 302.823 451.044 302.356Z" fill="white" fill-opacity="0.5"/>
<path d="M100.015 296.295C103.283 296.295 105.617 299.098 105.617 301.901C105.617 305.171 102.816 307.507 100.016 307.508C96.7481 307.508 94.414 304.705 94.4139 301.901C93.947 299.098 96.7477 296.295 100.015 296.295ZM171.434 296.292C174.702 296.292 177.036 299.095 177.036 301.898C177.036 305.169 174.236 307.505 171.435 307.505C168.167 307.505 165.833 304.702 165.833 301.899C165.366 299.096 168.167 296.292 171.434 296.292ZM242.854 296.29C246.121 296.289 248.455 299.093 248.456 301.896C248.456 305.166 245.655 307.502 242.854 307.502C239.587 307.502 237.253 304.699 237.253 301.896C236.786 299.093 239.586 296.29 242.854 296.29ZM314.273 296.287C317.541 296.287 319.875 299.09 319.875 301.893C319.875 305.164 317.074 307.5 314.274 307.5C311.006 307.5 308.672 304.697 308.672 301.894C308.205 299.09 311.006 296.287 314.273 296.287ZM385.692 296.284C388.96 296.284 391.294 299.087 391.294 301.891C391.294 305.161 388.494 307.497 385.693 307.497C382.425 307.497 380.091 304.694 380.091 301.891C379.624 299.088 382.425 296.285 385.692 296.284Z" fill="white" fill-opacity="0.5"/>
<path d="M22.9991 302.371C22.9991 301.437 22.999 300.97 23.4658 300.035C23.9326 299.101 24.3993 298.633 24.8661 298.166C25.7996 297.232 27.2 296.297 29.0672 296.297C29.534 296.297 30.0008 296.297 30.0008 296.297C30.4676 296.297 30.9343 296.297 30.9344 296.764C31.4012 296.764 31.4012 297.232 31.868 297.232C32.3347 297.232 32.3348 297.699 32.8016 297.699C33.2684 298.166 33.2684 298.166 33.7352 298.633C33.7352 299.1 34.202 299.1 34.202 299.568C34.202 300.035 34.6689 300.502 34.6689 300.502C35.1357 302.371 34.669 304.24 33.2687 305.641C32.3351 306.576 30.9347 307.51 29.0676 307.51C27.6672 307.51 25.8 307.043 24.8664 305.641C24.3996 305.174 23.9328 304.707 23.4659 303.773C22.9992 303.773 22.9991 302.838 22.9991 302.371Z" fill="white" fill-opacity="0.5"/>
<path d="M451.047 227.606C451.047 226.205 451.513 224.803 452.914 223.401C453.38 222.934 453.847 222.934 454.781 222.467C455.248 222 456.181 222 456.648 222C457.115 222 457.582 222 458.048 222C458.515 222 458.982 222 458.982 222.467C459.449 222.467 459.916 222.934 459.916 222.934C460.382 223.401 460.382 223.401 460.849 223.868C463.183 226.204 463.183 229.942 460.85 232.278C459.916 233.212 458.049 234.147 456.648 234.147C455.715 234.147 455.248 234.147 454.314 233.68C453.848 232.745 453.381 232.278 452.914 231.811C451.98 231.344 451.98 230.877 451.514 229.942C451.047 229.475 451.047 228.541 451.047 227.606Z" fill="white" fill-opacity="0.5"/>
<path d="M100.016 222.012C103.284 222.012 105.618 224.815 105.618 227.619C105.618 230.889 102.817 233.225 100.017 233.225C96.749 233.225 94.415 230.422 94.4148 227.619C93.948 224.816 96.7486 222.013 100.016 222.012ZM171.435 222.01C174.703 222.01 177.037 224.813 177.037 227.616C177.037 230.886 174.237 233.223 171.436 233.223C168.168 233.223 165.834 230.42 165.834 227.616C165.367 224.813 168.168 222.01 171.435 222.01ZM242.855 222.007C246.122 222.007 248.456 224.81 248.456 227.614C248.457 230.884 245.656 233.22 242.855 233.22C239.588 233.22 237.254 230.417 237.253 227.614C236.787 224.811 239.587 222.007 242.855 222.007ZM314.274 222.005C317.542 222.005 319.876 224.808 319.876 227.611C319.876 230.881 317.075 233.217 314.275 233.218C311.007 233.218 308.673 230.415 308.673 227.611C308.206 224.808 311.007 222.005 314.274 222.005ZM385.693 222.002C388.961 222.002 391.295 224.805 391.295 227.608C391.295 230.879 388.495 233.215 385.694 233.215C382.426 233.215 380.092 230.412 380.092 227.609C379.625 224.806 382.426 222.002 385.693 222.002Z" fill="white" fill-opacity="0.5"/>
<path d="M22.9988 227.622C22.9987 226.22 23.4655 224.818 24.8658 223.417C25.7993 222.482 27.1997 222.015 28.6001 222.015C29.0669 222.015 29.5337 222.015 29.5337 222.015C30.0005 222.015 30.4673 222.015 30.4673 222.482C30.9341 222.482 31.4009 222.949 31.4009 222.949C31.8677 223.416 31.8677 223.416 32.3345 223.884C34.6686 226.22 34.6687 229.957 32.3349 232.293C31.4013 233.228 30.0009 234.162 28.1338 234.162C26.2666 234.162 24.8662 233.695 23.9325 232.294C23.9325 231.359 23.4657 230.892 22.9989 229.958C22.9989 229.49 22.9988 228.556 22.9988 227.622Z" fill="white" fill-opacity="0.5"/>
</g>
<g clip-path="url(#clip2)">
<path d="M451.053 228.927C451.053 227.525 451.519 225.656 452.92 224.722C453.853 223.788 455.72 222.853 457.121 222.853C458.521 222.853 460.388 223.32 461.322 224.722C463.656 227.058 463.656 230.795 461.322 233.131C460.389 234.066 458.521 235 457.121 235C455.721 235 454.32 234.533 452.92 233.132C451.519 232.197 451.053 230.796 451.053 228.927Z" fill="white" fill-opacity="0.5"/>
<path d="M100.024 223.336C103.292 223.336 105.626 226.139 105.626 228.942C105.626 232.212 102.825 234.548 100.024 234.549C96.7568 234.549 94.4227 231.746 94.4226 228.942C93.9557 225.672 96.7564 223.336 100.024 223.336ZM171.443 223.333C174.711 223.333 177.045 226.136 177.045 228.939C177.045 232.21 174.244 234.546 171.444 234.546C168.176 234.546 165.842 231.743 165.842 228.94C165.375 225.669 168.176 223.333 171.443 223.333ZM242.863 223.331C246.13 223.33 248.464 226.134 248.464 228.937C248.464 232.207 245.664 234.543 242.863 234.543C239.595 234.543 237.261 231.74 237.261 228.937C236.794 225.667 239.595 223.331 242.863 223.331ZM314.282 223.328C317.549 223.328 319.884 226.131 319.884 228.934C319.884 232.205 317.083 234.541 314.282 234.541C311.015 234.541 308.681 231.738 308.681 228.935C308.214 225.664 311.014 223.328 314.282 223.328ZM385.701 223.325C388.969 223.325 391.303 226.128 391.303 228.932C391.303 232.202 388.502 234.538 385.702 234.538C382.434 234.538 380.1 231.735 380.1 228.932C379.633 225.662 382.434 223.326 385.701 223.325Z" fill="white" fill-opacity="0.5"/>
<path d="M23.004 228.942C23.0039 227.54 23.4706 225.672 24.871 224.737C25.3378 224.27 26.2713 223.803 26.7381 223.335C27.6717 222.868 28.1385 222.868 29.0721 222.868C30.4724 222.868 31.8728 223.335 33.2733 224.737C34.6737 226.138 35.1406 228.007 34.6738 229.876C34.6739 230.343 34.6738 230.81 34.2071 230.81C34.2071 231.278 33.7403 231.278 33.7403 231.745C33.7403 232.212 33.2735 232.212 32.8068 232.679C31.8732 233.614 30.4729 234.548 28.6057 234.548C27.6721 234.548 27.2053 234.548 26.2717 234.081C25.8049 233.614 24.8713 233.147 24.4045 232.679C23.4709 232.212 23.0041 230.811 23.004 228.942Z" fill="white" fill-opacity="0.5"/>
<path d="M451.046 154.644C451.046 153.709 451.046 153.242 451.513 152.308C451.979 151.373 452.446 150.906 452.913 150.439C453.847 149.505 455.714 148.57 457.114 148.57C458.514 148.57 460.382 149.037 461.315 150.439C461.782 150.906 461.782 150.906 462.249 151.373C462.249 151.84 462.716 151.84 462.716 152.307C462.716 152.775 463.183 153.242 463.183 153.242C463.649 155.111 463.183 156.979 461.782 158.381C461.316 158.381 461.316 158.848 460.849 159.316C460.382 159.316 460.382 159.783 459.915 159.783C459.448 159.783 459.448 159.783 458.982 160.25C458.515 160.25 458.048 160.25 458.048 160.25C457.114 160.25 456.648 160.25 455.714 159.783C453.847 159.783 453.38 159.316 452.913 158.849C452.446 158.381 451.98 157.447 451.513 156.98C451.046 156.045 451.046 155.578 451.046 154.644Z" fill="white" fill-opacity="0.5"/>
<path d="M100.016 149.056C103.284 149.056 105.618 151.859 105.618 154.663C105.618 157.933 102.817 160.269 100.017 160.269C96.749 160.269 94.415 157.466 94.4148 154.663C93.9479 151.393 96.7486 149.057 100.016 149.056ZM171.435 149.054C174.703 149.054 177.037 151.857 177.037 154.66C177.037 157.93 174.237 160.267 171.436 160.267C168.168 160.267 165.834 157.464 165.834 154.66C165.367 151.39 168.168 149.054 171.435 149.054ZM242.855 149.051C246.122 149.051 248.456 151.854 248.456 154.657C248.457 157.928 245.656 160.264 242.855 160.264C239.588 160.264 237.254 157.461 237.253 154.658C236.787 151.387 239.587 149.051 242.855 149.051ZM314.274 149.049C317.542 149.049 319.876 151.852 319.876 154.655C319.876 157.925 317.075 160.261 314.275 160.261C311.007 160.262 308.673 157.458 308.673 154.655C308.206 151.385 311.007 149.049 314.274 149.049ZM385.693 149.046C388.961 149.046 391.295 151.849 391.295 154.652C391.295 157.923 388.495 160.259 385.694 160.259C382.426 160.259 380.092 157.456 380.092 154.653C379.625 151.382 382.426 149.046 385.693 149.046Z" fill="white" fill-opacity="0.5"/>
<path d="M22.9969 154.66C22.9969 153.258 23.4636 151.857 24.8639 150.455C25.3307 149.988 25.7975 149.52 26.731 149.053C27.6646 148.586 28.1314 148.586 29.065 148.586C29.5318 148.586 29.9986 148.586 29.9986 148.586C30.4654 148.586 30.9322 148.586 30.9322 149.053C31.399 149.053 31.399 149.52 31.8658 149.52C32.3326 149.52 32.3326 149.987 32.7994 150.455C35.1334 152.79 35.1336 156.528 32.7997 158.864C32.7997 158.864 32.3329 159.331 31.8661 159.799C31.3993 159.799 31.3994 160.266 30.9326 160.266C30.4658 160.266 29.999 160.266 29.999 160.733C29.5322 160.733 29.0654 160.733 29.0654 160.733C28.1318 160.733 27.665 160.733 26.7314 160.266C26.2646 159.799 25.331 159.332 24.8642 158.864C23.4638 157.93 22.997 156.061 22.9969 154.66Z" fill="white" fill-opacity="0.5"/>
<path d="M451.044 80.3567C451.044 79.4223 451.044 78.9551 451.511 78.0207C451.977 77.0863 452.444 76.6191 452.911 76.1519C453.845 75.2174 455.712 74.283 457.112 74.2829C457.579 74.2829 458.046 74.2829 458.046 74.2829C458.512 74.2829 458.979 74.2829 458.979 74.7501C459.446 74.75 459.913 75.2172 459.913 75.2172C460.38 75.2172 460.38 75.6844 460.847 75.6844C461.313 76.1516 461.313 76.1516 461.78 76.6188C461.78 77.086 462.247 77.0859 462.247 77.5531C462.247 78.0203 462.714 78.4875 462.714 78.4875C463.181 80.3563 462.714 82.2251 461.314 83.6268C460.847 84.094 460.847 84.094 460.38 84.5612C459.913 84.5612 459.913 85.0284 459.446 85.0284C458.98 85.0285 458.98 85.4956 458.513 85.4957C458.046 85.4957 457.579 85.4957 457.579 85.4957C456.179 85.4957 454.779 85.0286 453.378 83.6271C452.911 83.1599 452.444 82.6927 451.978 81.7583C451.044 81.7583 451.044 80.8239 451.044 80.3567Z" fill="white" fill-opacity="0.5"/>
<path d="M100.015 74.2959C103.283 74.2958 105.617 77.0989 105.617 79.9021C105.617 83.1725 102.816 85.5086 100.016 85.5087C96.7481 85.5088 94.414 82.7057 94.4139 79.9025C93.947 77.0994 96.7477 74.2961 100.015 74.2959ZM171.434 74.2934C174.702 74.2932 177.036 77.0964 177.036 79.8995C177.036 83.1699 174.236 85.506 171.435 85.5061C168.167 85.5063 165.833 82.7032 165.833 79.9C165.366 77.0968 168.167 74.2935 171.434 74.2934ZM242.854 74.2908C246.121 74.2907 248.455 77.0938 248.456 79.897C248.456 83.1674 245.655 85.5035 242.854 85.5036C239.587 85.5037 237.253 82.7006 237.253 79.8974C236.786 77.0942 239.586 74.2909 242.854 74.2908ZM314.273 74.2882C317.541 74.2881 319.875 77.0912 319.875 79.8944C319.875 83.1648 317.074 85.5009 314.274 85.501C311.006 85.5011 308.672 82.698 308.672 79.8948C308.205 77.0916 311.006 74.2883 314.273 74.2882ZM385.692 74.2856C388.96 74.2855 391.294 77.0886 391.294 79.8918C391.294 83.1622 388.494 85.4983 385.693 85.4984C382.425 85.4985 380.091 82.6954 380.091 79.8922C379.624 77.089 382.425 74.2857 385.692 74.2856Z" fill="white" fill-opacity="0.5"/>
<path d="M22.9991 80.3721C22.9991 79.4377 22.999 78.9705 23.4658 78.0361C23.9326 77.1017 24.3993 76.6345 24.8661 76.1673C25.7996 75.2328 27.2 74.2984 29.0672 74.2983C29.534 74.2983 30.0008 74.2983 30.0008 74.2983C30.4676 74.2983 30.9343 74.2982 30.9344 74.7654C31.4012 74.7654 31.4012 75.2326 31.868 75.2326C32.3347 75.2326 32.3348 75.6998 32.8016 75.6998C33.2684 76.167 33.2684 76.167 33.7352 76.6341C33.7352 77.1013 34.202 77.1013 34.202 77.5685C34.202 78.0357 34.6689 78.5029 34.6689 78.5029C35.1357 80.3717 34.669 82.2405 33.2687 83.6421C32.3351 84.5766 30.9347 85.511 29.0676 85.5111C27.6672 85.5111 25.8 85.044 24.8664 83.6424C24.3996 83.1753 23.9328 82.7081 23.4659 81.7737C22.9992 81.7737 22.9991 80.8393 22.9991 80.3721Z" fill="white" fill-opacity="0.5"/>
<path d="M451.047 5.60754C451.047 4.20594 451.513 2.80433 452.914 1.40268C453.38 0.935465 453.847 0.935448 454.781 0.468215C455.248 0.00099833 456.181 0.000964564 456.648 0.000947681C457.115 0.000930798 457.582 0.000913915 458.048 0.000897032C458.515 0.000880149 458.982 0.000863266 458.982 0.468063C459.449 0.468046 459.916 0.935228 459.916 0.935228C460.382 1.40241 460.382 1.40241 460.849 1.86959C463.183 4.20551 463.183 7.9431 460.85 10.2792C459.916 11.2136 458.049 12.1481 456.648 12.1481C455.715 12.1482 455.248 12.1482 454.314 11.681C453.848 10.7466 453.381 10.2795 452.914 9.81227C451.98 9.3451 451.98 8.8779 451.514 7.94352C451.047 7.47634 451.047 6.54194 451.047 5.60754Z" fill="white" fill-opacity="0.5"/>
<path d="M100.016 0.0134647C103.284 0.0133465 105.618 2.81646 105.618 5.61965C105.618 8.89005 102.817 11.2261 100.017 11.2262C96.749 11.2264 94.415 8.42326 94.4148 5.62006C93.948 2.81688 96.7486 0.0135829 100.016 0.0134647ZM171.435 0.0108816C174.703 0.0107634 177.037 2.81388 177.037 5.61707C177.037 8.88747 174.237 11.2236 171.436 11.2237C168.168 11.2238 165.834 8.42067 165.834 5.61748C165.367 2.8143 168.168 0.0109998 171.435 0.0108816ZM242.855 0.00829851C246.122 0.00818033 248.456 2.81129 248.456 5.61449C248.457 8.88488 245.656 11.221 242.855 11.2211C239.588 11.2212 237.254 8.41809 237.253 5.61489C236.787 2.81171 239.587 0.00841669 242.855 0.00829851ZM314.274 0.0057154C317.542 0.00559721 319.876 2.80871 319.876 5.6119C319.876 8.8823 317.075 11.2184 314.275 11.2185C311.007 11.2186 308.673 8.41551 308.673 5.61231C308.206 2.80913 311.007 0.00583358 314.274 0.0057154ZM385.693 0.00313228C388.961 0.0030141 391.295 2.80613 391.295 5.60932C391.295 8.87972 388.495 11.2158 385.694 11.2159C382.426 11.216 380.092 8.41292 380.092 5.60973C379.625 2.80655 382.426 0.00325047 385.693 0.00313228Z" fill="white" fill-opacity="0.5"/>
<path d="M22.9988 5.62266C22.9987 4.22106 23.4655 2.81945 24.8658 1.4178C25.7993 0.483368 27.1997 0.0161182 28.6001 0.0160675C29.0669 0.0160506 29.5337 0.0160338 29.5337 0.0160338C30.0005 0.0160169 30.4673 0.016 30.4673 0.483199C30.9341 0.483182 31.4009 0.950365 31.4009 0.950365C31.8677 1.41755 31.8677 1.41755 32.3345 1.88473C34.6686 4.22064 34.6687 7.95824 32.3349 10.2943C31.4013 11.2288 30.0009 12.1632 28.1338 12.1633C26.2666 12.1633 24.8662 11.6962 23.9325 10.2946C23.9325 9.36022 23.4657 8.89304 22.9989 7.95866C22.9989 7.49146 22.9988 6.55706 22.9988 5.62266Z" fill="white" fill-opacity="0.5"/>
</g>
<defs>
<clipPath id="clip0">
<rect width="640" height="481" fill="white"/>
</clipPath>
<clipPath id="clip1">
<rect width="235.001" height="439.719" fill="white" transform="translate(462.719 221.999) rotate(89.9979)"/>
</clipPath>
<clipPath id="clip2">
<rect width="235.001" height="439.719" fill="white" transform="translate(462.719) rotate(89.9979)"/>
</clipPath>
</defs>
</svg>
