<svg width="14" height="14" viewBox="0 0 14 14" fill="none" xmlns="http://www.w3.org/2000/svg">
<path d="M7.00018 0.95C3.66393 0.95 0.95 3.66393 0.95 7C0.95 10.3361 3.66393 13.05 7.00018 13.05C10.3364 13.05 13.0504 10.3361 13.0504 7C13.0504 3.66393 10.3364 0.95 7.00018 0.95ZM7.00018 12.0567C4.21172 12.0567 1.94331 9.78827 1.94331 7C1.94331 4.21173 4.21172 1.94331 7.00018 1.94331C9.78863 1.94331 12.057 4.21173 12.057 7C12.057 9.78827 9.78863 12.0567 7.00018 12.0567ZM9.85877 6.86067H7.13951V3.4348C7.13951 3.16046 6.9172 2.93815 6.64285 2.93815C6.36851 2.93815 6.1462 3.16046 6.1462 3.4348V7.35732C6.1462 7.63167 6.36851 7.85398 6.64285 7.85398H9.85877C10.1331 7.85398 10.3554 7.63167 10.3554 7.35732C10.3554 7.08298 10.1331 6.86067 9.85877 6.86067Z" fill="#687086" stroke="#687086" stroke-width="0.1"/>
</svg>
