<svg width="121" height="24" viewBox="0 0 121 24" fill="none" xmlns="http://www.w3.org/2000/svg">
<path d="M7.59362 22.9038H3.07434V11.621H0V7.93177H3.07434V5.31858C3.07434 2.2135 4.42705 0 8.94633 0C9.89937 0 11.4058 0.184453 11.4058 0.184453V3.59696H9.83788C8.23923 3.59696 7.59362 4.08885 7.59362 5.44156V7.93177H11.3443L11.0061 11.621H7.59362V22.9038ZM17.9849 7.62434C17.9234 7.62434 17.8619 7.62434 17.7697 7.62434C13.5578 7.62434 11.6517 10.7909 11.6517 15.2794C11.6517 20.9362 14.142 23.1805 17.8004 23.1805C19.891 23.1805 21.2744 22.2889 22.1045 20.6595V22.9038H26.4086V7.93177H22.1045V10.2375C21.4589 8.76184 20.0447 7.65508 17.9849 7.62434ZM19.0916 11.1598C20.844 11.1598 21.92 12.3896 21.92 14.4801V16.6322C21.92 18.0464 21.0592 19.7065 19.0916 19.7065C16.0788 19.7065 16.171 16.4785 16.171 15.3717C16.171 11.744 17.7697 11.1598 19.0916 11.1598ZM28.1917 15.4024C28.1917 13.5886 28.0994 7.62434 35.8468 7.62434C38.9519 7.62434 40.2738 8.60815 40.2738 8.60815L39.2286 11.8362C39.2286 11.8362 37.9373 11.1291 36.2465 11.1291C34.0944 11.1291 32.711 12.3896 32.711 14.6031V16.2017C32.711 18.323 34.0329 19.7372 36.2465 19.7372C37.7836 19.7372 39.1978 19.0302 39.1978 19.0302L40.2431 22.1967C40.2431 22.1967 39.0441 23.1805 35.8775 23.1805C28.4991 23.2113 28.1917 17.8619 28.1917 15.4024ZM65.5141 7.65511C69.726 7.65511 71.6628 10.8216 71.6628 15.3102C71.6628 20.967 69.1726 23.2113 65.5141 23.2113C63.4236 23.2113 61.8557 22.3197 61.0256 20.6903V22.9346H56.783V0.491887L61.3023 0.0922076V10.0838C61.9479 8.26995 64.0999 7.65511 65.5141 7.65511ZM64.2537 11.1598C62.5013 11.1598 61.3023 12.3896 61.3023 14.4801V16.6322C61.3023 18.0464 62.1324 19.7065 64.2537 19.7065C67.2665 19.7065 67.1743 16.4785 67.1743 15.3717C67.1743 11.744 65.5756 11.1598 64.2537 11.1598ZM48.1134 7.65511C43.3482 7.65511 40.8272 10.2376 40.8272 14.8798V15.7406C40.8272 21.7356 44.3627 23.2727 48.5745 23.2727C52.6634 23.2727 54.508 22.1352 54.508 22.1352L53.6779 19.0916C53.6779 19.0916 51.4952 20.0139 49.1279 20.0139C46.6685 20.0139 45.5924 19.399 45.3157 17.0011H54.8769V14.5416C54.8769 9.53043 52.0485 7.65511 48.1134 7.65511ZM48.2056 10.6987C49.8658 10.6987 50.911 11.7132 50.8496 14.0497H45.285C45.408 11.5902 46.5762 10.6987 48.2056 10.6987ZM80.6706 7.62434C75.7824 7.62434 73.2 10.3912 73.2 15.3102C73.2 22.0737 77.627 23.1805 80.6706 23.1805C85.1284 23.1805 88.0798 20.7825 88.0798 15.3717C88.0798 9.74565 84.7595 7.62434 80.6706 7.62434ZM80.6091 11.1906C82.7612 11.1906 83.622 12.7892 83.622 14.6338V16.2017C83.622 18.4153 82.423 19.7065 80.6091 19.7065C78.9183 19.7065 77.7193 18.5075 77.7193 16.2017V14.6338C77.7193 12.1744 79.1335 11.1906 80.6091 11.1906ZM97.0876 7.62434C92.1994 7.62434 89.617 10.3912 89.617 15.3102C89.617 22.0737 94.044 23.1805 97.0876 23.1805C101.545 23.1805 104.497 20.7825 104.497 15.3717C104.497 9.74565 101.176 7.62434 97.0876 7.62434ZM97.0261 11.1906C99.1781 11.1906 100.039 12.7892 100.039 14.6338V16.2017C100.039 18.4153 98.84 19.7065 97.0261 19.7065C95.3352 19.7065 94.1362 18.5075 94.1362 16.2017V14.6338C94.1362 12.1744 95.5504 11.1906 97.0261 11.1906ZM106.218 22.9038V0.461151L110.738 0.0614717V15.095L115.226 7.93177H120.022L115.349 15.3717L120.207 22.9038H115.411L110.738 15.5869V22.9038H106.218Z" fill="#C2C2C2"/>
</svg>
