<svg width="13" height="14" viewBox="0 0 13 14" fill="none" xmlns="http://www.w3.org/2000/svg">
<path d="M12.1148 6.39339H10.8689C10.6066 5.47535 9.77049 4.80322 8.78689 4.80322C7.80328 4.80322 6.96721 5.49175 6.68853 6.39339H0.606557C0.278689 6.39339 0 6.65568 0 6.99994C0 7.32781 0.262295 7.6065 0.606557 7.6065H6.68853C6.95082 8.52453 7.78689 9.19667 8.77049 9.19667C9.7541 9.19667 10.5902 8.52453 10.8525 7.6065H12.0984C12.4262 7.6065 12.7049 7.34421 12.7049 6.99994C12.7213 6.67208 12.459 6.39339 12.1148 6.39339ZM8.78689 7.98355C8.2623 7.98355 7.80328 7.55732 7.80328 6.99994C7.80328 6.44257 8.22951 6.01634 8.78689 6.01634C9.34426 6.01634 9.77049 6.44257 9.77049 6.99994C9.77049 7.55732 9.31148 7.98355 8.78689 7.98355Z" fill="#2D66FE"/>
<path d="M0.606557 2.80328H1.90164C2.16393 3.72131 3 4.39344 3.98361 4.39344C4.96721 4.39344 5.80328 3.72131 6.06557 2.80328H12.1148C12.4426 2.80328 12.7213 2.54098 12.7213 2.19672C12.7213 1.85246 12.459 1.59016 12.1148 1.59016H6.06557C5.80328 0.672131 4.96721 0 3.98361 0C3 0 2.16393 0.672131 1.90164 1.59016H0.606557C0.278689 1.59016 0 1.85246 0 2.19672C0 2.54098 0.262295 2.80328 0.606557 2.80328ZM3.98361 1.21311C4.5082 1.21311 4.96721 1.63934 4.96721 2.19672C4.96721 2.7541 4.54098 3.18033 3.98361 3.18033C3.42623 3.18033 3 2.72131 3 2.19672C3 1.67213 3.45902 1.21311 3.98361 1.21311Z" fill="#2D66FE"/>
<path d="M12.1148 11.1967H6.06557C5.80328 10.2787 4.96721 9.60657 3.98361 9.60657C3 9.60657 2.16393 10.2787 1.90164 11.1967H0.606557C0.278689 11.1967 0 11.459 0 11.8033C0 12.1476 0.262295 12.4098 0.606557 12.4098H1.90164C2.16393 13.3279 3 14 3.98361 14C4.96721 14 5.80328 13.3279 6.06557 12.4098H12.1148C12.4426 12.4098 12.7213 12.1476 12.7213 11.8033C12.7213 11.459 12.459 11.1967 12.1148 11.1967ZM3.98361 12.7869C3.45902 12.7869 3 12.3607 3 11.8033C3 11.2459 3.42623 10.8197 3.98361 10.8197C4.54098 10.8197 4.96721 11.2459 4.96721 11.8033C4.96721 12.3607 4.5082 12.7869 3.98361 12.7869Z" fill="#2D66FE"/>
</svg>
