<svg width="80" height="80" viewBox="0 0 80 80" fill="none" xmlns="http://www.w3.org/2000/svg">
<path d="M22.8957 29.073C23.5496 28.9743 24.3021 28.9127 24.8572 29.3197C25.2025 29.5787 25.3259 30.0474 25.3012 30.467C25.3259 31.1577 25.0052 31.8979 24.3885 32.2557C23.8456 32.5518 23.1919 32.5763 22.5874 32.5147C22.1803 32.4654 21.7732 32.2434 21.5635 31.8733C21.0947 30.8001 21.6745 29.2827 22.8957 29.073ZM3.33094 29.8502C3.36789 29.4801 3.701 29.147 4.08338 29.1594C6.93308 29.1594 9.77032 29.1717 12.6076 29.1594C12.916 29.1347 13.2491 29.2704 13.3971 29.5418C13.6067 29.9119 13.4217 30.3189 13.3971 30.7014C13.3108 31.2194 13.3354 31.9103 12.731 32.1076C10.6585 32.1693 8.58605 32.1076 6.51357 32.1323C6.31622 33.4398 6.13119 34.7351 5.93375 36.0304C5.93375 36.0797 5.94615 36.1909 5.94615 36.24C7.46345 36.2278 8.98075 36.24 10.498 36.2278C10.9175 36.2031 11.3615 36.561 11.3245 37.0049C11.2876 37.4614 11.1889 37.9055 11.1272 38.3619C11.0778 38.6703 10.8311 38.954 10.5104 39.0157C8.8203 39.0527 7.10557 38.9787 5.41569 39.0527C5.14421 40.9154 4.82346 42.778 4.53971 44.6409C4.50281 45.011 4.20665 45.3317 3.83658 45.3439C3.13351 45.3563 2.43027 45.3563 1.7272 45.3439C1.27078 45.3563 0.900665 44.8504 1.02397 44.4187C1.77669 39.5586 2.55381 34.7106 3.33094 29.8502V29.8502ZM15.8642 29.184C16.5057 29.1347 17.1595 29.1717 17.801 29.1594C18.1958 29.1347 18.5905 29.4431 18.6274 29.8502C18.6274 30.1708 18.5411 30.4916 18.5041 30.8123C17.986 34.1184 17.4556 37.4245 16.9374 40.7305C16.8634 41.2609 16.7277 41.8283 16.8881 42.3712C17.0731 42.9139 17.8995 42.6795 18.097 43.2469C18.2203 43.7034 18.0846 44.1844 18.0476 44.6533C18.0106 45.27 17.3074 45.4057 16.8264 45.5416C15.7779 45.7389 14.5072 45.5908 13.7547 44.7272C13.2119 44.0982 13.1749 43.2099 13.286 42.4205C13.9398 38.2263 14.5936 34.0321 15.2598 29.8255C15.2968 29.5171 15.5435 29.2334 15.8642 29.184V29.184ZM40.351 29.8502C40.3879 29.4801 40.7211 29.1594 41.0912 29.1594H42.9663C43.435 29.147 43.8175 29.6528 43.7064 30.0969C43.2747 32.8355 42.8306 35.5741 42.3989 38.3125C43.0527 38.2139 43.7929 38.0905 44.2493 37.5601C45.014 36.6965 45.6433 35.6975 46.112 34.6489C46.2723 34.2418 46.3587 33.6497 46.8891 33.5756C47.5923 33.551 48.3077 33.5633 49.0109 33.5756C49.492 33.5633 49.8497 34.1061 49.6894 34.5501C49.5044 35.2041 49.196 35.8084 48.8753 36.3882C48.1597 37.5478 47.3703 38.695 46.334 39.6079C46.7904 40.9771 47.3703 42.3094 47.876 43.6541C48.024 44.0982 48.3819 44.6162 48.0487 45.0481C47.6662 45.5662 46.9508 45.307 46.4204 45.3687C45.8652 45.307 45.0634 45.5907 44.755 44.9617C44.1752 43.617 43.6942 42.2355 43.1019 40.8908C42.7565 40.903 42.3988 40.9155 42.0534 40.8785C42.0288 40.9279 41.9794 41.0264 41.9547 41.0759C41.7696 42.3094 41.5723 43.5431 41.3749 44.7766C41.3008 45.0726 41.0664 45.3318 40.7458 45.3564C40.092 45.3811 39.4258 45.3687 38.7597 45.3687C38.4759 45.3687 38.2169 45.1837 38.0935 44.937C37.9702 44.6901 38.0441 44.4066 38.0813 44.1352C38.846 39.3735 39.5985 34.6118 40.351 29.8502V29.8502ZM74.6326 31.1948C74.719 30.8493 75.0519 30.615 75.3975 30.6273C75.8909 30.6397 76.3967 30.615 76.9024 30.6397C77.3095 30.6519 77.6302 31.0591 77.5808 31.4538C77.5068 32.157 77.3341 32.8601 77.2848 33.5632C77.7658 33.5632 78.2593 33.5509 78.7404 33.5632C79.1722 33.5632 79.53 34.0073 79.4559 34.4267C79.3942 34.8092 79.3078 35.1793 79.2461 35.5616C79.1845 35.8824 78.9132 36.1414 78.6048 36.1908C78.0126 36.2278 77.4329 36.1661 76.853 36.2278C76.6063 37.8807 76.3349 39.5336 76.0759 41.1868C76.0388 41.5692 76.0142 42.0009 76.2362 42.334C76.5693 42.7411 77.149 42.593 77.6179 42.6425C77.988 42.7534 78.2223 43.1606 78.1606 43.5308C78.0989 43.95 78.0866 44.3695 77.988 44.7765C77.8399 45.2329 77.3095 45.3194 76.9023 45.4303C75.7798 45.7265 74.4845 45.7265 73.4854 45.0726C72.5602 44.4434 72.4121 43.2222 72.5108 42.186C72.7698 40.1875 73.177 38.2015 73.399 36.1907C73.0536 36.203 72.6341 36.2524 72.3751 35.944C72.0791 35.6356 72.2271 35.1792 72.2764 34.7966C72.3505 34.3896 72.3381 33.8592 72.7823 33.6371C73.1399 33.5013 73.5471 33.6001 73.9295 33.5507C74.1638 32.7614 74.3859 31.9719 74.6326 31.1948V31.1948ZM67.6628 35.1916C68.4399 34.4144 69.3774 33.7729 70.4507 33.4523C70.9194 33.2425 71.5239 33.6373 71.5116 34.1554C71.4253 34.8339 71.2649 35.4999 71.1538 36.1661C71.1044 36.4992 70.8207 36.7829 70.4876 36.8199C69.2787 37.0296 68.2302 37.7573 67.3913 38.6209C67.1817 38.8801 66.8732 39.1267 66.8362 39.4844C66.5773 41.2114 66.3058 42.9385 66.0344 44.6655C65.9975 45.0355 65.6766 45.3934 65.2943 45.3687H63.4191C62.9874 45.3934 62.6051 44.9617 62.6544 44.5299C63.1972 41.1128 63.74 37.7081 64.2704 34.291C64.2951 33.9457 64.5418 33.6126 64.8995 33.5755C65.3559 33.5509 65.8123 33.5632 66.2811 33.5632C66.6512 33.5632 66.9966 33.8963 66.9966 34.2787C66.9966 34.8091 66.9473 35.3519 66.9349 35.8946C67.231 35.7098 67.4161 35.4136 67.6628 35.1916V35.1916ZM21.5511 33.6249C22.2172 33.4893 22.908 33.6003 23.5742 33.5632C23.9566 33.514 24.3637 33.7606 24.4253 34.1431C24.4748 34.4884 24.3759 34.8215 24.3389 35.1547C23.8332 38.3251 23.3274 41.4953 22.8339 44.6656C22.7969 45.0235 22.501 45.3812 22.1185 45.3688C21.4524 45.3688 20.7862 45.3812 20.1078 45.3565C19.6884 45.3071 19.3799 44.8261 19.491 44.4189C20.0215 41.1253 20.5273 37.8439 21.0577 34.5502C21.0824 34.1924 21.1811 33.7729 21.5511 33.6249V33.6249ZM61.4701 33.7854C59.632 33.4399 57.7571 33.1932 55.8942 33.3782C54.2289 33.588 52.5512 34.3405 51.5274 35.7098C50.1088 37.5108 49.6276 39.9287 49.9483 42.1739C50.1211 43.247 50.5898 44.3326 51.4657 44.9987C52.2798 45.6279 53.3777 45.7141 54.3647 45.5538C55.7462 45.2824 56.9181 44.3944 57.8804 43.4074C57.9296 43.8268 57.831 44.2462 57.8557 44.6534C57.8804 45.0356 58.2258 45.3934 58.6081 45.3687H59.8665C60.2366 45.3687 60.545 45.0235 60.5697 44.6656C61.1001 41.3226 61.6305 37.9918 62.1486 34.6612C62.2225 34.2417 61.8896 33.8347 61.4701 33.7854V33.7854ZM58.0038 39.5956C57.5103 40.5208 56.8194 41.3596 56.0423 42.075C55.5983 42.4451 55.0307 42.8275 54.4264 42.7042C53.8342 42.5809 53.5505 41.9641 53.4148 41.4336C53.1064 40.052 53.3902 38.5469 54.1672 37.3504C54.5127 36.7952 55.0678 36.3759 55.7093 36.2031C56.6097 35.981 57.5597 36.0921 58.4356 36.3388L58.4849 36.3882C58.3739 37.4614 58.1641 38.5223 58.0038 39.5956V39.5956ZM37.2548 37.7452C37.2424 36.5116 36.9093 35.2163 36.0459 34.2911C35.4538 33.6373 34.5655 33.3042 33.702 33.3165C32.271 33.2673 30.9264 33.9704 29.8779 34.9079C29.6434 35.093 29.4831 35.3644 29.2241 35.5124C29.2241 35.1052 29.2611 34.6981 29.2487 34.2788C29.2611 33.8963 28.9033 33.5632 28.5332 33.5632H27.2749C26.8803 33.5632 26.5595 33.9087 26.5348 34.291C25.7576 39.2254 24.9682 44.1598 24.191 49.0942C24.0801 49.5506 24.4749 50.0194 24.9436 50.007C25.6344 49.9947 26.3375 50.0564 27.016 49.9576C27.5588 49.8096 27.5464 49.1804 27.6328 48.7241C27.8301 47.6385 27.9659 46.5529 28.0892 45.455C30.5194 45.9237 33.3443 45.6031 35.1577 43.765C36.638 42.1491 37.3287 39.9163 37.2548 37.7452V37.7452ZM33.8007 38.9911C33.7268 40.126 33.3196 41.2732 32.5302 42.0996C31.5063 43.0743 29.9519 42.9385 28.6936 42.6056C28.6691 42.5685 28.632 42.4944 28.6196 42.4575C28.817 41.3843 28.9157 40.2987 29.1625 39.2378C29.8533 38.103 30.692 36.9556 31.8886 36.3266C32.3327 36.1169 32.9372 36.1662 33.2579 36.5733C33.8007 37.2518 33.8501 38.1646 33.8007 38.9911V38.9911Z" fill="#C2C2C2" stroke="#C2C2C2" stroke-width="0.00455699"/>
</svg>
