<svg width="80" height="80" viewBox="0 0 80 80" fill="none" xmlns="http://www.w3.org/2000/svg">
<path d="M24.8119 30.0661C25.4036 29.9768 26.0844 29.921 26.5867 30.2893C26.8992 30.5236 27.0108 30.9478 26.9885 31.3273C27.0108 31.9524 26.7206 32.6221 26.1626 32.9458C25.6714 33.2137 25.0799 33.2359 24.5329 33.1802C24.1646 33.1356 23.7962 32.9347 23.6065 32.5999C23.1822 31.6288 23.7069 30.2558 24.8119 30.0661ZM7.1091 30.7693C7.14254 30.4344 7.44394 30.133 7.78993 30.1442C10.3684 30.1442 12.9356 30.1554 15.5029 30.1442C15.7819 30.1219 16.0834 30.2446 16.2172 30.4902C16.4069 30.8251 16.2395 31.1934 16.2172 31.5395C16.1392 32.0082 16.1614 32.6333 15.6146 32.8119C13.7393 32.8677 11.8641 32.8119 9.98884 32.8342C9.81027 34.0173 9.64285 35.1893 9.4642 36.3613C9.4642 36.4059 9.47542 36.5065 9.47542 36.551C10.8483 36.5399 12.2212 36.551 13.5941 36.5399C13.9737 36.5176 14.3754 36.8414 14.3419 37.2431C14.3085 37.6561 14.2192 38.0579 14.1634 38.4709C14.1187 38.7499 13.8955 39.0067 13.6053 39.0625C12.076 39.096 10.5245 39.029 8.99545 39.096C8.74981 40.7814 8.45958 42.4668 8.20284 44.1523C8.16944 44.4872 7.90147 44.7774 7.56662 44.7884C6.93046 44.7997 6.29415 44.7997 5.65799 44.7884C5.24501 44.7997 4.91012 44.3419 5.02169 43.9513C5.70277 39.5537 6.40594 35.1671 7.1091 30.7693ZM18.4496 30.1665C19.03 30.1219 19.6215 30.1554 20.202 30.1442C20.5593 30.1219 20.9164 30.4009 20.9498 30.7693C20.9498 31.0594 20.8717 31.3497 20.8382 31.6399C20.3694 34.6313 19.8895 37.6227 19.4206 40.6141C19.3537 41.094 19.2309 41.6075 19.376 42.0986C19.5435 42.5897 20.2912 42.3776 20.4698 42.891C20.5815 43.3041 20.4586 43.7393 20.4251 44.1635C20.3917 44.7216 19.7555 44.8443 19.3202 44.9673C18.3715 45.1458 17.2217 45.0119 16.5408 44.2304C16.0497 43.6613 16.0162 42.8576 16.1167 42.1433C16.7083 38.3483 17.2998 34.5532 17.9027 30.7469C17.9362 30.4679 18.1594 30.2112 18.4496 30.1665ZM40.606 30.7693C40.6394 30.4344 40.9408 30.1442 41.2757 30.1442H42.9723C43.3964 30.133 43.7425 30.5907 43.642 30.9925C43.2514 33.4704 42.8496 35.9484 42.4589 38.4262C43.0505 38.337 43.7202 38.2254 44.1332 37.7454C44.8252 36.964 45.3946 36.0601 45.8186 35.1113C45.9637 34.7429 46.0419 34.2072 46.5218 34.1402C47.1581 34.1178 47.8054 34.129 48.4417 34.1402C48.877 34.129 49.2007 34.6201 49.0556 35.0219C48.8882 35.6136 48.6091 36.1605 48.319 36.6851C47.6715 37.7343 46.9572 38.7723 46.0195 39.5983C46.4325 40.8373 46.9572 42.0428 47.4148 43.2595C47.5487 43.6613 47.8725 44.13 47.5711 44.5208C47.225 44.9895 46.5776 44.755 46.0977 44.8109C45.5954 44.755 44.8699 45.0118 44.5908 44.4426C44.0662 43.2259 43.6309 41.9759 43.0951 40.7592C42.7825 40.7702 42.4589 40.7815 42.1463 40.748C42.1241 40.7927 42.0794 40.8819 42.057 40.9266C41.8895 42.0428 41.711 43.159 41.5324 44.2751C41.4654 44.543 41.2533 44.7775 40.9632 44.7998C40.3716 44.8221 39.7688 44.8109 39.1661 44.8109C38.9093 44.8109 38.675 44.6435 38.5633 44.4202C38.4517 44.1969 38.5186 43.9403 38.5523 43.6947C39.2442 39.3862 39.9251 35.0777 40.606 30.7693ZM71.6249 31.9859C71.7031 31.6733 72.0044 31.4613 72.317 31.4724C72.7635 31.4836 73.2211 31.4613 73.6787 31.4836C74.0471 31.4947 74.3373 31.8631 74.2926 32.2203C74.2256 32.8565 74.0693 33.4928 74.0247 34.1289C74.46 34.1289 74.9064 34.1178 75.3418 34.1289C75.7325 34.1289 76.0562 34.5308 75.9892 34.9102C75.9334 35.2564 75.8552 35.5912 75.7994 35.9371C75.7436 36.2274 75.4981 36.4618 75.2191 36.5064C74.6833 36.5399 74.1587 36.4841 73.6341 36.5399C73.4108 38.0355 73.1653 39.5312 72.9309 41.027C72.8973 41.373 72.8751 41.7636 73.076 42.065C73.3774 42.4334 73.9019 42.2994 74.3261 42.3441C74.661 42.4445 74.873 42.8129 74.8172 43.1479C74.7614 43.5272 74.7502 43.9068 74.661 44.2751C74.527 44.688 74.0471 44.7662 73.6786 44.8666C72.6629 45.1346 71.4909 45.1346 70.5869 44.543C69.7498 43.9737 69.6158 42.8687 69.7051 41.931C69.9394 40.1228 70.3079 38.3258 70.5087 36.5064C70.1962 36.5175 69.8167 36.5622 69.5823 36.2831C69.3144 36.0041 69.4484 35.5911 69.493 35.245C69.56 34.8766 69.5488 34.3967 69.9507 34.1958C70.2743 34.0729 70.6428 34.1623 70.9887 34.1176C71.2008 33.4034 71.4017 32.6891 71.6249 31.9859ZM65.3184 35.6023C66.0216 34.8991 66.8699 34.3187 67.841 34.0286C68.2651 33.8388 68.8121 34.196 68.801 34.6648C68.7229 35.2787 68.5777 35.8813 68.4773 36.4841C68.4325 36.7855 68.1758 37.0422 67.8744 37.0757C66.7806 37.2654 65.8319 37.9238 65.0728 38.7053C64.8831 38.9398 64.604 39.163 64.5706 39.4866C64.3362 41.0493 64.0906 42.612 63.8451 44.1746C63.8116 44.5094 63.5213 44.8332 63.1753 44.8109H61.4787C61.0881 44.8332 60.7421 44.4426 60.7867 44.0519C61.2778 40.96 61.769 37.8794 62.2489 34.7874C62.2712 34.475 62.4945 34.1736 62.8181 34.1401C63.2312 34.1178 63.6441 34.1289 64.0683 34.1289C64.4031 34.1289 64.7156 34.4303 64.7156 34.7763C64.7156 35.2563 64.671 35.7474 64.6599 36.2385C64.9278 36.0712 65.0952 35.8032 65.3184 35.6023ZM23.5952 34.1848C24.198 34.062 24.823 34.1625 25.4258 34.1289C25.7718 34.0844 26.1402 34.3076 26.1959 34.6536C26.2407 34.9661 26.1512 35.2675 26.1177 35.5689C25.6602 38.4376 25.2024 41.3061 24.756 44.1747C24.7225 44.4985 24.4547 44.8222 24.1086 44.8109C23.5059 44.8109 22.9032 44.8222 22.2893 44.7999C21.9098 44.7551 21.6307 44.3199 21.7312 43.9515C22.2112 40.9714 22.6689 38.0022 23.1488 35.0219C23.1711 34.6982 23.2604 34.3187 23.5952 34.1848ZM59.7151 34.33C58.052 34.0173 56.3555 33.7941 54.6699 33.9615C53.1631 34.1513 51.6451 34.8322 50.7187 36.0712C49.4351 37.7008 48.9997 39.8886 49.2898 41.9201C49.4462 42.8911 49.8703 43.8734 50.6629 44.4761C51.3995 45.0454 52.3929 45.1234 53.2859 44.9784C54.5359 44.7328 55.5963 43.9293 56.467 43.0362C56.5116 43.4157 56.4223 43.7953 56.4447 44.1636C56.467 44.5095 56.7795 44.8332 57.1255 44.8109H58.2641C58.599 44.8109 58.8781 44.4985 58.9004 44.1747C59.3803 41.1498 59.8603 38.1361 60.3291 35.1224C60.396 34.7429 60.0947 34.3745 59.7151 34.33ZM56.5787 39.5872C56.1322 40.4243 55.5071 41.1833 54.8039 41.8306C54.4021 42.1655 53.8886 42.5116 53.3418 42.4C52.806 42.2884 52.5492 41.7303 52.4265 41.2503C52.1474 40.0002 52.4042 38.6384 53.1073 37.5557C53.4198 37.0533 53.9221 36.6739 54.5025 36.5176C55.3173 36.3167 56.1769 36.4171 56.9694 36.6404L57.014 36.6851C56.9136 37.6561 56.7238 38.6161 56.5787 39.5872ZM37.8044 37.9129C37.7932 36.7967 37.4918 35.6247 36.7105 34.7875C36.1748 34.196 35.3711 33.8946 34.5898 33.9057C33.2949 33.8611 32.0783 34.4974 31.1296 35.3456C30.9174 35.5131 30.7724 35.7587 30.538 35.8926C30.538 35.5241 30.5715 35.1558 30.5602 34.7764C30.5715 34.4303 30.2477 34.1289 29.9129 34.1289H28.7743C28.4172 34.1289 28.127 34.4415 28.1046 34.7875C27.4014 39.2523 26.6872 43.717 25.9839 48.1818C25.8835 48.5948 26.2407 49.019 26.6649 49.0078C27.2899 48.9967 27.9262 49.0525 28.54 48.9631C29.0312 48.8291 29.02 48.2598 29.0981 47.8469C29.2767 46.8646 29.3996 45.8824 29.5111 44.889C31.71 45.3131 34.2661 45.023 35.9069 43.3598C37.2463 41.8977 37.8713 39.8774 37.8044 37.9129ZM34.679 39.0402C34.6121 40.0671 34.2437 41.1052 33.5294 41.8529C32.603 42.7348 31.1965 42.612 30.058 42.3107C30.0358 42.2771 30.0022 42.2102 29.9911 42.1768C30.1696 41.2057 30.259 40.2234 30.4822 39.2635C31.1073 38.2366 31.8662 37.1985 32.9489 36.6293C33.3508 36.4396 33.8977 36.4842 34.1879 36.8526C34.679 37.4664 34.7237 38.2924 34.679 39.0402Z" fill="#C2C2C2" stroke="#C2C2C2" stroke-width="0.0041233"/>
</svg>
