<svg width="80" height="80" viewBox="0 0 80 80" fill="none" xmlns="http://www.w3.org/2000/svg">
<path d="M7.08789 39.8772C7.08789 37.9932 8.62115 36.4645 10.5142 36.4645C12.4064 36.4645 13.9405 37.9923 13.9405 39.8772C13.9405 41.7629 12.4073 43.2907 10.5151 43.2907C8.62206 43.2907 7.08789 41.762 7.08789 39.8772" fill="#C2C2C2"/>
<path d="M10.5136 30.778C5.46912 30.778 1.37891 34.8518 1.37891 39.878C1.37891 43.6505 3.66556 46.8713 6.98595 48.2731C7.85714 48.6393 8.86074 48.2302 9.22693 47.3581C9.27077 47.2539 9.30364 47.1462 9.32647 47.0357C9.48628 46.2376 9.05982 45.4376 8.30826 45.1253V45.1244C6.24991 44.265 4.8034 42.2405 4.8034 39.878C4.8034 36.7366 7.35944 34.1897 10.5136 34.1897C13.6678 34.1897 16.2239 36.7357 16.2239 39.878C16.2239 42.2405 14.7774 44.265 12.719 45.1244V45.1253C11.8496 45.4869 11.4378 46.4841 11.7985 47.3544C11.9285 47.6663 12.148 47.9326 12.4294 48.1197C12.7108 48.3068 13.0413 48.4063 13.3792 48.4055C13.6057 48.4037 13.8304 48.3589 14.0404 48.2731C17.3608 46.8722 19.6484 43.6505 19.6484 39.878C19.6484 34.8518 15.5581 30.7771 10.5127 30.7771" fill="#C2C2C2"/>
<path d="M46.1544 38.8671C46.1544 37.2206 45.0212 35.9969 43.2541 35.9969C41.4862 35.9969 40.3538 37.2215 40.3538 38.868C40.3538 40.5127 41.4871 41.7382 43.2541 41.7382C45.0221 41.7382 46.1544 40.5136 46.1544 38.8671ZM37.5101 38.868C37.5101 35.8444 39.9109 33.5094 43.2541 33.5094C46.6156 33.5094 48.9981 35.8444 48.9981 38.868C48.9981 41.8916 46.6156 44.2258 43.2541 44.2258C39.9118 44.2267 37.5101 41.8916 37.5101 38.868ZM48.0219 46.4156H49.5579C50.3844 46.4156 50.6729 46.1097 50.6729 45.3819V33.513H53.5157V45.4211C53.5157 47.9288 52.4984 49 49.7899 49H48.0219V46.4156ZM32.9532 39.4214C32.9532 40.6743 31.6766 41.6752 30.0529 41.6752C28.2174 41.6752 27.0759 40.5967 27.0759 38.8059C27.0759 37.1503 28.2941 36.0134 30.1698 36.0134C31.6583 36.0134 32.9542 37.0535 32.9542 38.2279V39.4214H32.9532ZM33.0692 33.5066V34.7029H33.03C32.2957 33.9331 31.0775 33.5085 29.6283 33.5085C26.5152 33.5085 24.2148 35.8198 24.2148 38.805C24.2148 41.9062 26.5736 44.1792 29.7251 44.1792C31.136 44.1792 32.3158 43.7354 33.0309 42.9455H33.0701V43.9774C33.0701 45.3636 31.8711 46.3846 30.2849 46.3846C28.6868 46.3846 27.7562 45.9353 26.948 45.1664L25.097 46.9407C26.3371 48.253 28.2073 48.9981 30.3433 48.9981C33.5916 48.9981 35.8143 46.8275 35.8143 43.939V33.5066H33.0692ZM60.7821 35.8052C62.2989 35.8052 63.3555 36.5905 63.4897 37.7768H58.0342C58.1877 36.5905 59.2451 35.8052 60.7821 35.8052ZM61.0752 41.93C59.3712 41.93 58.0315 40.8323 57.9968 39.7675H66.2576V38.9648C66.2576 35.9221 64.1445 33.5103 60.7245 33.5103C57.4982 33.5103 55.1924 35.7686 55.1924 38.889C55.1924 42.1035 57.6242 44.2276 61.1985 44.2276C63.3883 44.2276 64.9581 43.1811 65.7782 42.1802L63.8513 40.8351C62.9929 41.6305 62.2158 41.93 61.0752 41.93V41.93ZM67.9306 30.7497H70.6757L70.6903 37.7768H70.7268L75.3211 33.4847H79.0004L74.238 37.974L78.9812 44.2166H75.6964L72.439 39.7045H72.4025L70.6747 41.3355V44.2249H67.9297V30.7497H67.9306Z" fill="#C2C2C2"/>
</svg>
