<svg width="80" height="80" viewBox="0 0 80 80" fill="none" xmlns="http://www.w3.org/2000/svg">
<path d="M10.9414 40.1271C10.9414 38.5013 12.2646 37.1821 13.8983 37.1821C15.5312 37.1821 16.8551 38.5005 16.8551 40.1271C16.8551 41.7545 15.532 43.0729 13.8991 43.0729C12.2654 43.0729 10.9414 41.7537 10.9414 40.1271Z" fill="#C2C2C2"/>
<path d="M13.8968 32.2747C9.54347 32.2747 6.01367 35.7903 6.01367 40.1279C6.01367 43.3835 7.98702 46.163 10.8525 47.3727C11.6043 47.6887 12.4704 47.3357 12.7864 46.583C12.8242 46.4932 12.8526 46.4002 12.8723 46.3049C13.0102 45.6161 12.6422 44.9257 11.9936 44.6562V44.6554C10.2173 43.9138 8.96896 42.1667 8.96896 40.1279C8.96896 37.4169 11.1748 35.219 13.8968 35.219C16.6188 35.219 18.8247 37.4161 18.8247 40.1279C18.8247 42.1667 17.5763 43.9138 15.8 44.6554V44.6562C15.0498 44.9683 14.6943 45.8289 15.0056 46.5799C15.1178 46.8491 15.3073 47.0789 15.5501 47.2404C15.7929 47.4018 16.0782 47.4877 16.3698 47.487C16.5652 47.4854 16.7591 47.4468 16.9404 47.3727C19.8058 46.1638 21.7799 43.3835 21.7799 40.1279C21.7799 35.7903 18.2501 32.2739 13.896 32.2739" fill="#C2C2C2"/>
<path d="M44.6543 39.2555C44.6543 37.8346 43.6763 36.7786 42.1513 36.7786C40.6256 36.7786 39.6484 37.8354 39.6484 39.2563C39.6484 40.6756 40.6264 41.7332 42.1513 41.7332C43.677 41.7332 44.6543 40.6764 44.6543 39.2555ZM37.1943 39.2563C37.1943 36.647 39.2662 34.6319 42.1513 34.6319C45.0522 34.6319 47.1083 36.647 47.1083 39.2563C47.1083 41.8656 45.0522 43.88 42.1513 43.88C39.267 43.8807 37.1943 41.8656 37.1943 39.2563ZM46.2659 45.7698H47.5914C48.3046 45.7698 48.5537 45.5058 48.5537 44.8777V34.635H51.0069V44.9116C51.0069 47.0756 50.129 48 47.7916 48H46.2659V45.7698ZM33.2618 39.7339C33.2618 40.8151 32.1601 41.6789 30.7589 41.6789C29.1748 41.6789 28.1897 40.7481 28.1897 39.2027C28.1897 37.7739 29.241 36.7928 30.8598 36.7928C32.1443 36.7928 33.2626 37.6904 33.2626 38.7039V39.7339H33.2618ZM33.3619 34.6295V35.6619H33.328C32.6944 34.9975 31.6431 34.6311 30.3924 34.6311C27.7059 34.6311 25.7207 36.6257 25.7207 39.2019C25.7207 41.8782 27.7563 43.8398 30.476 43.8398C31.6935 43.8398 32.7117 43.4568 33.3288 42.7751H33.3627V43.6656C33.3627 44.8619 32.3279 45.743 30.9591 45.743C29.5799 45.743 28.7769 45.3552 28.0794 44.6917L26.482 46.2229C27.5522 47.3554 29.1662 47.9985 31.0095 47.9985C33.8127 47.9985 35.7309 46.1252 35.7309 43.6325V34.6295H33.3619ZM57.2777 36.6131C58.5867 36.6131 59.4985 37.2908 59.6143 38.3146H54.9064C55.0387 37.2908 55.9513 36.6131 57.2777 36.6131ZM57.5307 41.8987C56.0601 41.8987 54.904 40.9515 54.874 40.0326H62.003V39.3398C62.003 36.714 60.1794 34.6327 57.228 34.6327C54.4438 34.6327 52.4539 36.5816 52.4539 39.2744C52.4539 42.0485 54.5525 43.8815 57.637 43.8815C59.5268 43.8815 60.8816 42.9784 61.5892 42.1147L59.9264 40.9538C59.1856 41.6402 58.515 41.8987 57.5307 41.8987ZM63.4467 32.2503H65.8157L65.8283 38.3146H65.8598L69.8247 34.6106H72.9998L68.89 38.4848L72.9833 43.8721H70.1486L67.3375 39.9782H67.306L65.8149 41.3857V43.8792H63.446V32.2503H63.4467Z" fill="#C2C2C2"/>
</svg>
