<svg width="71" height="24" viewBox="0 0 71 24" fill="none" xmlns="http://www.w3.org/2000/svg">
<path d="M17.4508 8.21893H9.16836V10.6767H15.0423C14.7522 14.123 11.8848 15.5928 9.1783 15.5928C5.71557 15.5928 2.69386 12.8684 2.69386 9.04961C2.69386 5.32961 5.57426 2.46475 9.18595 2.46475C11.9723 2.46475 13.6142 4.2409 13.6142 4.2409L15.3351 2.45889C15.3351 2.45889 13.1264 0 9.09803 0C3.96834 0 0 4.32934 0 9.00564C0 13.5879 3.73287 18.056 9.22876 18.056C14.0624 18.056 17.6007 14.7448 17.6007 9.84817C17.6007 8.81527 17.4508 8.21817 17.4508 8.21817V8.21893Z" fill="#C2C2C2"/>
<path d="M24.2325 6.43906C20.834 6.43906 18.3984 9.09609 18.3984 12.1948C18.3984 15.3393 20.7609 18.0457 24.2724 18.0457C27.4514 18.0457 30.0558 15.616 30.0558 12.2624C30.0558 8.41858 27.0263 6.43906 24.2325 6.43906ZM24.2663 8.71853C25.9374 8.71853 27.5212 10.0697 27.5212 12.2469C27.5212 14.3779 25.9442 15.7676 24.2586 15.7676C22.4064 15.7676 20.9452 14.2841 20.9452 12.2299C20.9452 10.2198 22.3883 8.71853 24.2663 8.71853Z" fill="#C2C2C2"/>
<path d="M36.9278 6.43906C33.5293 6.43906 31.0938 9.09609 31.0938 12.1948C31.0938 15.3393 33.4562 18.0457 36.9677 18.0457C40.1467 18.0457 42.7509 15.616 42.7509 12.2624C42.7511 8.41858 39.7216 6.43906 36.9278 6.43906ZM36.9616 8.71853C38.633 8.71853 40.2166 10.0697 40.2166 12.2469C40.2166 14.3779 38.6396 15.7676 36.954 15.7676C35.1019 15.7676 33.6407 14.2841 33.6407 12.2299C33.6407 10.2198 35.0836 8.71853 36.9616 8.71853Z" fill="#C2C2C2"/>
<path d="M49.3761 6.4451C46.2567 6.4451 43.8047 9.17718 43.8047 12.2438C43.8047 15.7368 46.6474 18.0531 49.3224 18.0531C50.9763 18.0531 51.8558 17.3966 52.5052 16.643V17.7873C52.5052 19.7894 51.2895 20.9886 49.4546 20.9886C47.6819 20.9886 46.7929 19.6705 46.4839 18.9225L44.2536 19.855C45.0448 21.5281 46.6376 23.2727 49.4732 23.2727C52.5747 23.2727 54.9386 21.3192 54.9386 17.2221V6.79411H52.5054V7.77718C51.7572 6.97098 50.734 6.44523 49.3761 6.4451ZM49.6019 8.72011C51.1313 8.72011 52.7019 10.0261 52.7019 12.2561C52.7019 14.523 51.1347 15.7722 49.5682 15.7722C47.905 15.7722 46.3577 14.4219 46.3577 12.2776C46.3577 10.0496 47.9648 8.72011 49.6019 8.72011Z" fill="#C2C2C2"/>
<path d="M65.751 6.4313C62.8084 6.4313 60.3379 8.77245 60.3379 12.2269C60.3379 15.8823 63.0916 18.0501 66.0337 18.0501C68.4892 18.0501 69.9961 16.7069 70.8953 15.5033L68.8891 14.1684C68.3686 14.9763 67.4983 15.766 66.0459 15.766C64.4143 15.766 63.6643 14.8726 63.1996 14.0071L70.9809 10.7784L70.577 9.83211C69.8253 7.97912 68.0716 6.43156 65.7512 6.43156L65.751 6.4313ZM65.8523 8.66325C66.9127 8.66325 67.6757 9.22697 67.9999 9.90283L62.8034 12.0749C62.5793 10.3933 64.1723 8.66325 65.8523 8.66325Z" fill="#C2C2C2"/>
<path d="M56.6289 17.7057H59.1849V0.60022H56.6289V17.7057Z" fill="#C2C2C2"/>
</svg>
