<svg width="80" height="80" viewBox="0 0 80 80" fill="none" xmlns="http://www.w3.org/2000/svg">
<path d="M22.4508 36.2189H14.1684V38.6767H20.0423C19.7522 42.123 16.8848 43.5928 14.1783 43.5928C10.7156 43.5928 7.69386 40.8684 7.69386 37.0496C7.69386 33.3296 10.5743 30.4647 14.1859 30.4647C16.9723 30.4647 18.6142 32.2409 18.6142 32.2409L20.3351 30.4589C20.3351 30.4589 18.1264 28 14.098 28C8.96834 28 5 32.3293 5 37.0056C5 41.5879 8.73287 46.056 14.2288 46.056C19.0624 46.056 22.6007 42.7448 22.6007 37.8482C22.6007 36.8153 22.4508 36.2182 22.4508 36.2182V36.2189Z" fill="#C2C2C2"/>
<path d="M29.2325 34.4391C25.834 34.4391 23.3984 37.0961 23.3984 40.1948C23.3984 43.3393 25.7609 46.0457 29.2724 46.0457C32.4514 46.0457 35.0558 43.616 35.0558 40.2625C35.0558 36.4186 32.0263 34.4391 29.2325 34.4391ZM29.2663 36.7186C30.9374 36.7186 32.5212 38.0698 32.5212 40.2469C32.5212 42.3779 30.9442 43.7676 29.2586 43.7676C27.4064 43.7676 25.9452 42.2842 25.9452 40.23C25.9452 38.2199 27.3883 36.7186 29.2663 36.7186Z" fill="#C2C2C2"/>
<path d="M41.9278 34.4391C38.5293 34.4391 36.0938 37.0961 36.0938 40.1948C36.0938 43.3393 38.4562 46.0457 41.9677 46.0457C45.1467 46.0457 47.7509 43.616 47.7509 40.2625C47.7511 36.4186 44.7216 34.4391 41.9278 34.4391ZM41.9616 36.7186C43.633 36.7186 45.2166 38.0698 45.2166 40.2469C45.2166 42.3779 43.6396 43.7676 41.954 43.7676C40.1019 43.7676 38.6407 42.2842 38.6407 40.23C38.6407 38.2199 40.0836 36.7186 41.9616 36.7186Z" fill="#C2C2C2"/>
<path d="M54.3761 34.4451C51.2567 34.4451 48.8047 37.1772 48.8047 40.2437C48.8047 43.7368 51.6474 46.0531 54.3224 46.0531C55.9763 46.0531 56.8558 45.3966 57.5052 44.643V45.7873C57.5052 47.7893 56.2895 48.9885 54.4546 48.9885C52.6819 48.9885 51.7929 47.6705 51.4839 46.9225L49.2536 47.855C50.0448 49.528 51.6376 51.2727 54.4732 51.2727C57.5747 51.2727 59.9386 49.3192 59.9386 45.222V34.7941H57.5054V35.7772C56.7572 34.9709 55.734 34.4452 54.3761 34.4451ZM54.6019 36.7201C56.1313 36.7201 57.7019 38.026 57.7019 40.2561C57.7019 42.5229 56.1347 43.7722 54.5682 43.7722C52.905 43.7722 51.3577 42.4219 51.3577 40.2776C51.3577 38.0496 52.9648 36.7201 54.6019 36.7201Z" fill="#C2C2C2"/>
<path d="M70.751 34.4313C67.8084 34.4313 65.3379 36.7725 65.3379 40.2269C65.3379 43.8823 68.0916 46.0502 71.0337 46.0502C73.4892 46.0502 74.9961 44.7069 75.8953 43.5034L73.8891 42.1685C73.3686 42.9763 72.4983 43.766 71.0459 43.766C69.4143 43.766 68.6643 42.8726 68.1996 42.0072L75.9809 38.7784L75.577 37.8321C74.8253 35.9791 73.0716 34.4316 70.7512 34.4316L70.751 34.4313ZM70.8523 36.6633C71.9127 36.6633 72.6757 37.227 72.9999 37.9029L67.8034 40.0749C67.5793 38.3933 69.1723 36.6633 70.8523 36.6633Z" fill="#C2C2C2"/>
<path d="M61.6289 45.7057H64.1849V28.6002H61.6289V45.7057Z" fill="#C2C2C2"/>
</svg>
