<svg width="124" height="22" viewBox="0 0 124 22" fill="none" xmlns="http://www.w3.org/2000/svg">
<path d="M13.1017 0.698549H14.1249C15.2066 0.698549 16.0067 1.55726 16.0067 2.47719V10.6728H5.75186V2.47719C5.75186 1.55759 6.58178 0.698549 7.63407 0.698549H8.65559V0.312378H0V0.698549H1.0235C2.09035 0.698549 2.90571 1.55726 2.90571 2.47719V11.6215V19.2827C2.90571 20.2179 2.09002 21.0634 1.0235 21.0634H0V21.4479H8.65526V21.0634H7.63374C6.58112 21.0634 5.75153 20.2179 5.75153 19.2827C5.75153 19.2827 5.76543 11.7397 5.75153 11.7397H16.0064C15.9922 11.7397 16.0064 19.2827 16.0064 19.2827C16.0064 20.2315 15.1917 21.0634 14.1245 21.0634H13.1014V21.4479H21.7566V21.0634H20.7341C19.6812 21.0634 18.8519 20.2179 18.8519 19.2827V11.6215V2.47719C18.8519 1.55759 19.6669 0.698549 20.7341 0.698549H21.7566V0.312378H13.1017V0.698549Z" fill="#C2C2C2"/>
<path d="M34.5159 11.8565C32.3858 10.015 27.6836 7.34949 26.9423 6.461C26.5793 6.02652 25.9486 5.31109 26.0823 4.14894C26.258 2.62378 27.1856 1.76209 29.0913 1.39247C31.077 1.00729 32.4113 1.86699 33.0923 2.48943C33.775 3.11253 34.7528 4.8005 35.0493 7.05432H35.3752V0.117471H35.0493C34.9599 0.828595 34.7528 1.09531 34.4411 1.274C34.1237 1.45534 33.5668 1.5106 33.0635 1.274C32.5602 1.03707 31.0774 0 29.1204 0C27.1647 0 25.8017 0.711124 24.7931 1.65885C23.7855 2.6079 23.3109 4.03014 23.3109 5.27502C23.3109 6.72838 24.0015 7.63738 24.5568 8.26876C24.9797 8.75122 26.4847 9.9415 28.1425 11.0408C29.4563 11.9127 30.8428 12.8184 31.8186 13.4568C33.3739 14.4723 33.538 15.5607 33.6042 16.3092C33.7895 18.3827 32.1012 20.0557 30.5588 20.3026C28.6174 20.614 26.6022 19.9181 25.5346 18.6874C24.8818 17.9359 23.8301 16.6123 23.533 14.3598H23.207V21.6818H23.5333C23.6223 20.97 23.8593 20.5855 24.2444 20.3479C24.574 20.1441 25.1273 20.1269 25.5485 20.2884C26.2454 20.5554 28.1578 21.7411 30.3808 21.7411C32.3365 21.7411 33.8001 20.9343 34.8266 20.0064C35.8951 19.0442 36.6648 17.1593 36.59 15.9177C36.4729 13.9323 35.6135 12.8035 34.5159 11.8565Z" fill="#C2C2C2"/>
<path d="M50.2933 10.6562C53.0352 9.84122 54.1567 7.00632 53.5836 4.75746C52.8433 1.85373 49.7298 0.933807 48.6633 0.72732C48.0289 0.60389 47.0471 0.430165 45.2397 0.430165C43.0017 0.429503 39.873 0.430165 37.7251 0.430165V0.816336H38.97C39.7549 0.816336 40.6589 1.49735 40.6589 2.5053V19.3794C40.6589 20.3863 39.7549 21.0541 38.9627 21.0541H37.7168V21.4393C40.1496 21.4393 43.1785 21.4469 45.5726 21.4442C46.9144 21.4442 48.2721 21.4505 48.8036 21.3814C49.9819 21.2255 53.614 20.571 54.435 17.3489C55.1345 14.6086 54.0607 11.9494 50.2933 10.6562ZM43.4756 1.67504C44.84 1.25975 47.4475 1.05293 49.2553 2.32793C50.1729 2.9732 50.7047 3.90041 50.9105 4.90604C51.2526 6.57846 50.6087 8.47026 48.7516 9.64929C47.5666 10.4021 44.5127 10.3303 43.4759 10.0646V1.67504H43.4756ZM49.6692 19.6619C47.7268 21.0538 44.9396 20.7053 43.4756 20.2523V11.2559C44.5722 10.9978 47.8777 10.9385 49.2017 11.7943C52.4906 13.918 52.0002 17.9935 49.6692 19.6619Z" fill="#C2C2C2"/>
<path d="M66.6812 20.1276C64.7454 19.8321 62.2365 18.6908 60.9317 15.9485C59.3221 12.5703 59.9227 8.56661 60.8715 6.22543C61.6415 4.32104 63.1832 2.34254 66.1772 1.80911C68.171 1.45405 69.85 2.08277 70.9778 2.7939C71.6551 3.22077 72.125 3.7039 72.3725 3.94282C73.2322 4.7734 73.9139 6.04707 74.1214 7.85681L74.5516 7.84126L74.2468 0.68303H73.8838C73.8838 1.37959 73.5489 1.73499 73.1343 1.91335C72.719 2.09005 72.2901 2.03943 71.5281 1.6023C70.0012 0.728033 68.214 0.195598 65.4946 0.461319C61.8635 0.817377 59.1077 3.18867 57.788 5.5742C57.0217 6.96368 56.5508 9.33862 56.5607 11.473C56.5736 13.8747 57.5514 16.6305 58.8264 18.0836C60.0349 19.4615 62.6802 21.7811 66.8887 21.8179C70.1779 21.8477 73.0535 19.892 75.218 16.8383L74.7736 16.5422C71.987 20.3016 68.3311 20.3791 66.6812 20.1276Z" fill="#C2C2C2"/>
<path d="M92.0863 21.4479V0.331238L81.5273 10.8902L92.0863 21.4479Z" fill="#C2C2C2"/>
<path d="M102.643 10.8899V10.8896H102.642L92.0859 21.4462H113.2L102.643 10.8899Z" fill="#C2C2C2"/>
<path d="M102.64 10.8899L113.195 0.335266H92.0859L102.64 10.8896V10.8899Z" fill="#C2C2C2"/>
<path d="M113.203 0.331238V21.4479L123.762 10.8902L113.203 0.331238Z" fill="#C2C2C2"/>
</svg>
