<svg width="11" height="11" viewBox="0 0 11 11" fill="none" xmlns="http://www.w3.org/2000/svg">
<path d="M6.54684 8.13816C6.29052 8.23428 6.07692 8.31972 5.9274 8.37312C5.78055 8.42118 5.61145 8.44877 5.43612 8.44877C5.41743 8.44877 5.39874 8.44833 5.38005 8.44788H5.38272C5.36047 8.44966 5.33422 8.45055 5.30752 8.45055C5.05698 8.45055 4.82647 8.36511 4.64313 8.22182L4.64536 8.2236C4.4816 8.08565 4.37791 7.88006 4.37791 7.65044C4.37791 7.64154 4.37791 7.63264 4.37836 7.62419V7.62552C4.37479 7.58414 4.37301 7.53563 4.37301 7.48668C4.37301 7.43773 4.3748 7.38923 4.3788 7.34161L4.37836 7.34784C4.37836 7.25172 4.4104 7.14492 4.44244 7.01676L4.76284 5.86332C4.79488 5.75652 4.81624 5.64972 4.8376 5.54292C4.85584 5.46371 4.86741 5.3716 4.86964 5.27726V5.27592C4.87186 5.2599 4.8732 5.24166 4.8732 5.22341C4.8732 5.12596 4.83982 5.03651 4.78375 4.96531L4.78464 4.9662C4.70365 4.91013 4.60353 4.87676 4.49539 4.87676C4.47314 4.87676 4.45134 4.87809 4.42953 4.88076L4.4322 4.88032C4.42731 4.88032 4.42152 4.88032 4.41529 4.88032C4.32985 4.88032 4.24753 4.89189 4.16921 4.91414L4.17544 4.9128L3.94047 4.99824L4.06863 4.6458C4.28224 4.56036 4.49584 4.4856 4.68808 4.42152C4.85406 4.36768 5.04497 4.33653 5.24299 4.33608H5.24344C5.24922 4.33608 5.2559 4.33608 5.26302 4.33608C5.52423 4.33608 5.76364 4.42909 5.9501 4.5835L5.94832 4.58217C6.10584 4.7219 6.20508 4.92482 6.20508 5.15088C6.20508 5.15755 6.20508 5.16423 6.20464 5.1709V5.17001C6.20464 5.22341 6.20464 5.30885 6.20464 5.43701C6.19396 5.56695 6.17126 5.6871 6.13744 5.80236L6.14056 5.78945L5.80948 6.93221C5.78634 7.01676 5.76409 7.12534 5.74762 7.2357L5.7454 7.25261C5.72849 7.33449 5.71692 7.42972 5.71336 7.52718V7.53029C5.71158 7.54453 5.71024 7.56144 5.71024 7.57835C5.71024 7.67892 5.74762 7.77059 5.80948 7.84046L5.80903 7.84001C5.89314 7.88941 5.9946 7.91878 6.10318 7.91878C6.12765 7.91878 6.15168 7.91744 6.17527 7.91433L6.1726 7.91477C6.18016 7.91477 6.18906 7.91522 6.19796 7.91522C6.28385 7.91522 6.36706 7.9032 6.44627 7.8814L6.4396 7.88273C6.52281 7.86093 6.59357 7.83556 6.66165 7.80441L6.6532 7.80797L6.54684 8.13816ZM6.49344 3.46032C6.34926 3.59338 6.15569 3.67526 5.94342 3.67526C5.73116 3.67526 5.53758 3.59382 5.39296 3.45988L5.3934 3.46032C5.25768 3.3335 5.17313 3.15283 5.17313 2.95302C5.17313 2.75322 5.25768 2.57255 5.39296 2.44617L5.3934 2.44572C5.53758 2.31266 5.73116 2.23079 5.94342 2.23079C6.15569 2.23079 6.34926 2.31222 6.49389 2.44617L6.49344 2.44572C6.62917 2.57255 6.71372 2.75322 6.71372 2.95302C6.71372 3.15283 6.62917 3.3335 6.49389 3.45988L6.49344 3.46032ZM5.34 0C2.39099 0 0 2.39099 0 5.34C0 8.28902 2.39099 10.68 5.34 10.68C8.28902 10.68 10.68 8.28902 10.68 5.34C10.68 2.39099 8.28902 0 5.34 0ZM5.34 9.92172C2.80973 9.92172 0.75828 7.87027 0.75828 5.34C0.75828 2.80973 2.80973 0.75828 5.34 0.75828C7.87027 0.75828 9.92172 2.80973 9.92172 5.34C9.92172 7.87027 7.87027 9.92172 5.34 9.92172Z" fill="#687086"/>
</svg>
