<svg width="106" height="106" viewBox="0 0 106 106" fill="none" xmlns="http://www.w3.org/2000/svg">
<g filter="url(#filter0_d)">
<rect x="35" y="25" width="36" height="36" rx="18" fill="white"/>
</g>
<path fill-rule="evenodd" clip-rule="evenodd" d="M61.9543 39.2921C61.9121 38.3357 61.7574 37.6781 61.5358 37.1084C61.3072 36.5036 60.9555 35.9621 60.4947 35.512C60.0445 35.0549 59.4994 34.6997 58.9015 34.4747C58.3283 34.2531 57.6741 34.0985 56.7175 34.0563C55.7538 34.0106 55.4478 34 53.0035 34C50.5592 34 50.2532 34.0106 49.2931 34.0527C48.3365 34.0949 47.6788 34.2497 47.1091 34.4711C46.5041 34.6997 45.9625 35.0513 45.5123 35.512C45.0551 35.9621 44.7 36.5072 44.4748 37.1049C44.2532 37.6781 44.0985 38.3321 44.0563 39.2885C44.0106 40.252 44 40.5579 44 43.0018C44 45.4456 44.0106 45.7515 44.0528 46.7115C44.0949 47.6679 44.2498 48.3254 44.4714 48.8952C44.7 49.5 45.0551 50.0414 45.5123 50.4916C45.9625 50.9487 46.5076 51.3039 47.1055 51.5289C47.6788 51.7504 48.3329 51.9051 49.2896 51.9473C50.2497 51.9896 50.5558 52 53.0001 52C55.4444 52 55.7503 51.9896 56.7105 51.9473C57.6671 51.9051 58.3247 51.7504 58.8945 51.5289C60.1044 51.0612 61.061 50.1048 61.5288 48.8952C61.7502 48.322 61.9051 47.6679 61.9472 46.7115C61.9894 45.7515 62 45.4456 62 43.0018C62 40.5579 61.9964 40.252 61.9543 39.2921ZM60.333 46.6412C60.2943 47.5203 60.1466 47.995 60.0235 48.3114C59.721 49.0956 59.0985 49.718 58.3142 50.0204C57.9976 50.1435 57.5194 50.2911 56.6436 50.3297C55.694 50.3721 55.4092 50.3825 53.0071 50.3825C50.6049 50.3825 50.3166 50.3721 49.3704 50.3297C48.4912 50.2911 48.0164 50.1435 47.6998 50.0204C47.3095 49.8762 46.9543 49.6476 46.6659 49.3487C46.367 49.0569 46.1384 48.7052 45.9941 48.315C45.871 47.9985 45.7233 47.5203 45.6847 46.6448C45.6424 45.6953 45.632 45.4105 45.632 43.0088C45.632 40.6071 45.6424 40.3188 45.6847 39.373C45.7233 38.4939 45.871 38.0192 45.9941 37.7027C46.1384 37.3123 46.367 36.9573 46.6695 36.6688C46.9613 36.3699 47.313 36.1414 47.7034 35.9973C48.02 35.8742 48.4983 35.7266 49.374 35.6878C50.3236 35.6457 50.6085 35.6351 53.0105 35.6351C55.4162 35.6351 55.701 35.6457 56.6472 35.6878C57.5264 35.7266 58.0012 35.8742 58.3177 35.9973C58.708 36.1414 59.0633 36.3699 59.3517 36.6688C59.6506 36.9607 59.8792 37.3123 60.0235 37.7027C60.1466 38.0192 60.2943 38.4973 60.333 39.373C60.3752 40.3224 60.3858 40.6071 60.3858 43.0088C60.3858 45.4105 60.3752 45.6918 60.333 46.6412ZM53.0039 38.3779C50.4506 38.3779 48.379 40.4489 48.379 43.0018C48.379 45.5547 50.4506 47.6258 53.0039 47.6258C55.5573 47.6258 57.6287 45.5547 57.6287 43.0018C57.6287 40.4489 55.5573 38.3779 53.0039 38.3779ZM53.0039 46.0013C51.3475 46.0013 50.0038 44.6581 50.0038 43.0018C50.0038 41.3456 51.3475 40.0024 53.0039 40.0024C54.6604 40.0024 56.0039 41.3456 56.0039 43.0018C56.0039 44.6581 54.6604 46.0013 53.0039 46.0013ZM57.8135 39.2745C58.4099 39.2745 58.8933 38.7911 58.8933 38.195C58.8933 37.5988 58.4099 37.1155 57.8135 37.1155C57.2173 37.1155 56.7338 37.5988 56.7338 38.195C56.7338 38.7911 57.2173 39.2745 57.8135 39.2745Z" fill="black"/>
<path fill-rule="evenodd" clip-rule="evenodd" d="M61.9543 39.2921C61.9121 38.3357 61.7574 37.6781 61.5358 37.1084C61.3072 36.5036 60.9555 35.9621 60.4947 35.512C60.0445 35.0549 59.4994 34.6997 58.9015 34.4747C58.3283 34.2531 57.6741 34.0985 56.7175 34.0563C55.7538 34.0106 55.4478 34 53.0035 34C50.5592 34 50.2532 34.0106 49.2931 34.0527C48.3365 34.0949 47.6788 34.2497 47.1091 34.4711C46.5041 34.6997 45.9625 35.0513 45.5123 35.512C45.0551 35.9621 44.7 36.5072 44.4748 37.1049C44.2532 37.6781 44.0985 38.3321 44.0563 39.2885C44.0106 40.252 44 40.5579 44 43.0018C44 45.4456 44.0106 45.7515 44.0528 46.7115C44.0949 47.6679 44.2498 48.3254 44.4714 48.8952C44.7 49.5 45.0551 50.0414 45.5123 50.4916C45.9625 50.9487 46.5076 51.3039 47.1055 51.5289C47.6788 51.7504 48.3329 51.9051 49.2896 51.9473C50.2497 51.9896 50.5558 52 53.0001 52C55.4444 52 55.7503 51.9896 56.7105 51.9473C57.6671 51.9051 58.3247 51.7504 58.8945 51.5289C60.1044 51.0612 61.061 50.1048 61.5288 48.8952C61.7502 48.322 61.9051 47.6679 61.9472 46.7115C61.9894 45.7515 62 45.4456 62 43.0018C62 40.5579 61.9964 40.252 61.9543 39.2921ZM60.333 46.6412C60.2943 47.5203 60.1466 47.995 60.0235 48.3114C59.721 49.0956 59.0985 49.718 58.3142 50.0204C57.9976 50.1435 57.5194 50.2911 56.6436 50.3297C55.694 50.3721 55.4092 50.3825 53.0071 50.3825C50.6049 50.3825 50.3166 50.3721 49.3704 50.3297C48.4912 50.2911 48.0164 50.1435 47.6998 50.0204C47.3095 49.8762 46.9543 49.6476 46.6659 49.3487C46.367 49.0569 46.1384 48.7052 45.9941 48.315C45.871 47.9985 45.7233 47.5203 45.6847 46.6448C45.6424 45.6953 45.632 45.4105 45.632 43.0088C45.632 40.6071 45.6424 40.3188 45.6847 39.373C45.7233 38.4939 45.871 38.0192 45.9941 37.7027C46.1384 37.3123 46.367 36.9573 46.6695 36.6688C46.9613 36.3699 47.313 36.1414 47.7034 35.9973C48.02 35.8742 48.4983 35.7266 49.374 35.6878C50.3236 35.6457 50.6085 35.6351 53.0105 35.6351C55.4162 35.6351 55.701 35.6457 56.6472 35.6878C57.5264 35.7266 58.0012 35.8742 58.3177 35.9973C58.708 36.1414 59.0633 36.3699 59.3517 36.6688C59.6506 36.9607 59.8792 37.3123 60.0235 37.7027C60.1466 38.0192 60.2943 38.4973 60.333 39.373C60.3752 40.3224 60.3858 40.6071 60.3858 43.0088C60.3858 45.4105 60.3752 45.6918 60.333 46.6412ZM53.0039 38.3779C50.4506 38.3779 48.379 40.4489 48.379 43.0018C48.379 45.5547 50.4506 47.6258 53.0039 47.6258C55.5573 47.6258 57.6287 45.5547 57.6287 43.0018C57.6287 40.4489 55.5573 38.3779 53.0039 38.3779ZM53.0039 46.0013C51.3475 46.0013 50.0038 44.6581 50.0038 43.0018C50.0038 41.3456 51.3475 40.0024 53.0039 40.0024C54.6604 40.0024 56.0039 41.3456 56.0039 43.0018C56.0039 44.6581 54.6604 46.0013 53.0039 46.0013ZM57.8135 39.2745C58.4099 39.2745 58.8933 38.7911 58.8933 38.195C58.8933 37.5988 58.4099 37.1155 57.8135 37.1155C57.2173 37.1155 56.7338 37.5988 56.7338 38.195C56.7338 38.7911 57.2173 39.2745 57.8135 39.2745Z" fill="url(#paint0_linear)"/>
<defs>
<filter id="filter0_d" x="0" y="0" width="106" height="106" filterUnits="userSpaceOnUse" color-interpolation-filters="sRGB">
<feFlood flood-opacity="0" result="BackgroundImageFix"/>
<feColorMatrix in="SourceAlpha" type="matrix" values="0 0 0 0 0 0 0 0 0 0 0 0 0 0 0 0 0 0 127 0"/>
<feMorphology radius="5" operator="erode" in="SourceAlpha" result="effect1_dropShadow"/>
<feOffset dy="10"/>
<feGaussianBlur stdDeviation="20"/>
<feColorMatrix type="matrix" values="0 0 0 0 0.34902 0 0 0 0 0.4 0 0 0 0 0.517647 0 0 0 0.3 0"/>
<feBlend mode="normal" in2="BackgroundImageFix" result="effect1_dropShadow"/>
<feBlend mode="normal" in="SourceGraphic" in2="effect1_dropShadow" result="shape"/>
</filter>
<linearGradient id="paint0_linear" x1="45.2086" y1="50.8273" x2="61.8868" y2="36.3897" gradientUnits="userSpaceOnUse">
<stop stop-color="#FFDD55"/>
<stop offset="0.5" stop-color="#FF543E"/>
<stop offset="1" stop-color="#C837AB"/>
</linearGradient>
</defs>
</svg>
