<svg width="36" height="36" viewBox="0 0 36 36" fill="none" xmlns="http://www.w3.org/2000/svg">
<path d="M0 18C0 8.05888 8.05888 0 18 0V0C27.9411 0 36 8.05888 36 18V18C36 27.9411 27.9411 36 18 36V36C8.05888 36 0 27.9411 0 18V18Z" fill="white"/>
<path fill-rule="evenodd" clip-rule="evenodd" d="M26.9543 14.2921C26.9121 13.3357 26.7574 12.6781 26.5358 12.1084C26.3072 11.5036 25.9555 10.9621 25.4947 10.512C25.0445 10.0549 24.4994 9.69969 23.9015 9.4747C23.3283 9.25315 22.6741 9.09848 21.7175 9.05632C20.7538 9.01058 20.4478 9 18.0035 9C15.5592 9 15.2532 9.01058 14.2931 9.05274C13.3365 9.09491 12.6788 9.24971 12.1091 9.47113C11.5041 9.69969 10.9625 10.0513 10.5123 10.512C10.0551 10.9621 9.69996 11.5072 9.47479 12.1049C9.2532 12.6781 9.0985 13.3321 9.05633 14.2885C9.01058 15.252 9 15.5579 9 18.0018C9 20.4456 9.01058 20.7515 9.05275 21.7115C9.09493 22.6679 9.24976 23.3254 9.47136 23.8952C9.69996 24.5 10.0551 25.0414 10.5123 25.4916C10.9625 25.9487 11.5076 26.3039 12.1055 26.5289C12.6788 26.7504 13.3329 26.9051 14.2896 26.9473C15.2497 26.9896 15.5558 27 18.0001 27C20.4444 27 20.7503 26.9896 21.7105 26.9473C22.6671 26.9051 23.3247 26.7504 23.8945 26.5289C25.1044 26.0612 26.061 25.1048 26.5288 23.8952C26.7502 23.322 26.9051 22.6679 26.9472 21.7115C26.9894 20.7515 27 20.4456 27 18.0018C27 15.5579 26.9964 15.252 26.9543 14.2921ZM25.333 21.6412C25.2943 22.5203 25.1466 22.995 25.0235 23.3114C24.721 24.0956 24.0985 24.718 23.3142 25.0204C22.9976 25.1435 22.5194 25.2911 21.6436 25.3297C20.694 25.3721 20.4092 25.3825 18.0071 25.3825C15.6049 25.3825 15.3166 25.3721 14.3704 25.3297C13.4912 25.2911 13.0164 25.1435 12.6998 25.0204C12.3095 24.8762 11.9543 24.6476 11.6659 24.3487C11.367 24.0569 11.1384 23.7052 10.9941 23.315C10.871 22.9985 10.7233 22.5203 10.6847 21.6448C10.6424 20.6953 10.632 20.4105 10.632 18.0088C10.632 15.6071 10.6424 15.3188 10.6847 14.373C10.7233 13.4939 10.871 13.0192 10.9941 12.7027C11.1384 12.3123 11.367 11.9573 11.6695 11.6688C11.9613 11.3699 12.313 11.1414 12.7034 10.9973C13.02 10.8742 13.4983 10.7266 14.374 10.6878C15.3236 10.6457 15.6085 10.6351 18.0105 10.6351C20.4162 10.6351 20.701 10.6457 21.6472 10.6878C22.5264 10.7266 23.0012 10.8742 23.3177 10.9973C23.708 11.1414 24.0633 11.3699 24.3517 11.6688C24.6506 11.9607 24.8792 12.3123 25.0235 12.7027C25.1466 13.0192 25.2943 13.4973 25.333 14.373C25.3752 15.3224 25.3858 15.6071 25.3858 18.0088C25.3858 20.4105 25.3752 20.6918 25.333 21.6412ZM18.0039 13.3779C15.4506 13.3779 13.379 15.4489 13.379 18.0018C13.379 20.5547 15.4506 22.6258 18.0039 22.6258C20.5573 22.6258 22.6287 20.5547 22.6287 18.0018C22.6287 15.4489 20.5573 13.3779 18.0039 13.3779ZM18.0039 21.0013C16.3475 21.0013 15.0038 19.6581 15.0038 18.0018C15.0038 16.3456 16.3475 15.0024 18.0039 15.0024C19.6604 15.0024 21.0039 16.3456 21.0039 18.0018C21.0039 19.6581 19.6604 21.0013 18.0039 21.0013ZM22.8135 14.2745C23.4099 14.2745 23.8933 13.7911 23.8933 13.195C23.8933 12.5988 23.4099 12.1155 22.8135 12.1155C22.2173 12.1155 21.7338 12.5988 21.7338 13.195C21.7338 13.7911 22.2173 14.2745 22.8135 14.2745Z" fill="black"/>
<path fill-rule="evenodd" clip-rule="evenodd" d="M26.9543 14.2921C26.9121 13.3357 26.7574 12.6781 26.5358 12.1084C26.3072 11.5036 25.9555 10.9621 25.4947 10.512C25.0445 10.0549 24.4994 9.69969 23.9015 9.4747C23.3283 9.25315 22.6741 9.09848 21.7175 9.05632C20.7538 9.01058 20.4478 9 18.0035 9C15.5592 9 15.2532 9.01058 14.2931 9.05274C13.3365 9.09491 12.6788 9.24971 12.1091 9.47113C11.5041 9.69969 10.9625 10.0513 10.5123 10.512C10.0551 10.9621 9.69996 11.5072 9.47479 12.1049C9.2532 12.6781 9.0985 13.3321 9.05633 14.2885C9.01058 15.252 9 15.5579 9 18.0018C9 20.4456 9.01058 20.7515 9.05275 21.7115C9.09493 22.6679 9.24976 23.3254 9.47136 23.8952C9.69996 24.5 10.0551 25.0414 10.5123 25.4916C10.9625 25.9487 11.5076 26.3039 12.1055 26.5289C12.6788 26.7504 13.3329 26.9051 14.2896 26.9473C15.2497 26.9896 15.5558 27 18.0001 27C20.4444 27 20.7503 26.9896 21.7105 26.9473C22.6671 26.9051 23.3247 26.7504 23.8945 26.5289C25.1044 26.0612 26.061 25.1048 26.5288 23.8952C26.7502 23.322 26.9051 22.6679 26.9472 21.7115C26.9894 20.7515 27 20.4456 27 18.0018C27 15.5579 26.9964 15.252 26.9543 14.2921ZM25.333 21.6412C25.2943 22.5203 25.1466 22.995 25.0235 23.3114C24.721 24.0956 24.0985 24.718 23.3142 25.0204C22.9976 25.1435 22.5194 25.2911 21.6436 25.3297C20.694 25.3721 20.4092 25.3825 18.0071 25.3825C15.6049 25.3825 15.3166 25.3721 14.3704 25.3297C13.4912 25.2911 13.0164 25.1435 12.6998 25.0204C12.3095 24.8762 11.9543 24.6476 11.6659 24.3487C11.367 24.0569 11.1384 23.7052 10.9941 23.315C10.871 22.9985 10.7233 22.5203 10.6847 21.6448C10.6424 20.6953 10.632 20.4105 10.632 18.0088C10.632 15.6071 10.6424 15.3188 10.6847 14.373C10.7233 13.4939 10.871 13.0192 10.9941 12.7027C11.1384 12.3123 11.367 11.9573 11.6695 11.6688C11.9613 11.3699 12.313 11.1414 12.7034 10.9973C13.02 10.8742 13.4983 10.7266 14.374 10.6878C15.3236 10.6457 15.6085 10.6351 18.0105 10.6351C20.4162 10.6351 20.701 10.6457 21.6472 10.6878C22.5264 10.7266 23.0012 10.8742 23.3177 10.9973C23.708 11.1414 24.0633 11.3699 24.3517 11.6688C24.6506 11.9607 24.8792 12.3123 25.0235 12.7027C25.1466 13.0192 25.2943 13.4973 25.333 14.373C25.3752 15.3224 25.3858 15.6071 25.3858 18.0088C25.3858 20.4105 25.3752 20.6918 25.333 21.6412ZM18.0039 13.3779C15.4506 13.3779 13.379 15.4489 13.379 18.0018C13.379 20.5547 15.4506 22.6258 18.0039 22.6258C20.5573 22.6258 22.6287 20.5547 22.6287 18.0018C22.6287 15.4489 20.5573 13.3779 18.0039 13.3779ZM18.0039 21.0013C16.3475 21.0013 15.0038 19.6581 15.0038 18.0018C15.0038 16.3456 16.3475 15.0024 18.0039 15.0024C19.6604 15.0024 21.0039 16.3456 21.0039 18.0018C21.0039 19.6581 19.6604 21.0013 18.0039 21.0013ZM22.8135 14.2745C23.4099 14.2745 23.8933 13.7911 23.8933 13.195C23.8933 12.5988 23.4099 12.1155 22.8135 12.1155C22.2173 12.1155 21.7338 12.5988 21.7338 13.195C21.7338 13.7911 22.2173 14.2745 22.8135 14.2745Z" fill="url(#paint0_linear)"/>
<defs>
<linearGradient id="paint0_linear" x1="10.2086" y1="25.8273" x2="26.8868" y2="11.3897" gradientUnits="userSpaceOnUse">
<stop stop-color="#FFDD55"/>
<stop offset="0.5" stop-color="#FF543E"/>
<stop offset="1" stop-color="#C837AB"/>
</linearGradient>
</defs>
</svg>
