<svg width="106" height="106" viewBox="0 0 106 106" fill="none" xmlns="http://www.w3.org/2000/svg">
<g filter="url(#filter0_d)">
<rect x="35" y="25" width="36" height="36" rx="18" fill="white"/>
</g>
<path d="M60.3718 34H45.6282C44.729 34 44 34.729 44 35.6282V50.3717C44 51.271 44.729 52 45.6282 52H60.3717C61.271 52 62 51.271 62 50.3717V35.6282C62 34.729 61.271 34 60.3718 34ZM49.57 49.5424C49.57 49.8041 49.3578 50.0162 49.0961 50.0162H47.0791C46.8174 50.0162 46.6052 49.8041 46.6052 49.5424V41.0871C46.6052 40.8253 46.8174 40.6132 47.0791 40.6132H49.0961C49.3578 40.6132 49.57 40.8253 49.57 41.0871V49.5424ZM48.0876 39.8162C47.0293 39.8162 46.1714 38.9582 46.1714 37.9C46.1714 36.8417 47.0293 35.9838 48.0876 35.9838C49.1459 35.9838 50.0038 36.8417 50.0038 37.9C50.0038 38.9582 49.1459 39.8162 48.0876 39.8162ZM60.1109 49.5806C60.1109 49.8212 59.9159 50.0162 59.6753 50.0162H57.5108C57.2702 50.0162 57.0752 49.8212 57.0752 49.5806V45.6145C57.0752 45.0229 57.2487 43.0219 55.529 43.0219C54.1951 43.0219 53.9245 44.3915 53.8702 45.0062V49.5806C53.8702 49.8212 53.6751 50.0162 53.4345 50.0162H51.3411C51.1005 50.0162 50.9054 49.8212 50.9054 49.5806V41.0489C50.9054 40.8083 51.1005 40.6132 51.3411 40.6132H53.4345C53.6751 40.6132 53.8702 40.8083 53.8702 41.0489V41.7866C54.3648 41.0443 55.0999 40.4713 56.665 40.4713C60.1308 40.4713 60.1109 43.7093 60.1109 45.4883V49.5806Z" fill="#0077B7"/>
<defs>
<filter id="filter0_d" x="0" y="0" width="106" height="106" filterUnits="userSpaceOnUse" color-interpolation-filters="sRGB">
<feFlood flood-opacity="0" result="BackgroundImageFix"/>
<feColorMatrix in="SourceAlpha" type="matrix" values="0 0 0 0 0 0 0 0 0 0 0 0 0 0 0 0 0 0 127 0"/>
<feMorphology radius="5" operator="erode" in="SourceAlpha" result="effect1_dropShadow"/>
<feOffset dy="10"/>
<feGaussianBlur stdDeviation="20"/>
<feColorMatrix type="matrix" values="0 0 0 0 0.34902 0 0 0 0 0.4 0 0 0 0 0.517647 0 0 0 0.3 0"/>
<feBlend mode="normal" in2="BackgroundImageFix" result="effect1_dropShadow"/>
<feBlend mode="normal" in="SourceGraphic" in2="effect1_dropShadow" result="shape"/>
</filter>
</defs>
</svg>
