<svg width="36" height="36" viewBox="0 0 36 36" fill="none" xmlns="http://www.w3.org/2000/svg">
<path d="M0 18C0 8.05888 8.05888 0 18 0V0C27.9411 0 36 8.05888 36 18V18C36 27.9411 27.9411 36 18 36V36C8.05888 36 0 27.9411 0 18V18Z" fill="white"/>
<path d="M25.3718 9H10.6282C9.729 9 9 9.729 9 10.6282V25.3717C9 26.271 9.729 27 10.6282 27H25.3717C26.271 27 27 26.271 27 25.3717V10.6282C27 9.729 26.271 9 25.3718 9ZM14.57 24.5424C14.57 24.8041 14.3578 25.0162 14.0961 25.0162H12.0791C11.8174 25.0162 11.6052 24.8041 11.6052 24.5424V16.0871C11.6052 15.8253 11.8174 15.6132 12.0791 15.6132H14.0961C14.3578 15.6132 14.57 15.8253 14.57 16.0871V24.5424ZM13.0876 14.8162C12.0293 14.8162 11.1714 13.9582 11.1714 12.9C11.1714 11.8417 12.0293 10.9838 13.0876 10.9838C14.1459 10.9838 15.0038 11.8417 15.0038 12.9C15.0038 13.9582 14.1459 14.8162 13.0876 14.8162ZM25.1109 24.5806C25.1109 24.8212 24.9159 25.0162 24.6753 25.0162H22.5108C22.2702 25.0162 22.0752 24.8212 22.0752 24.5806V20.6145C22.0752 20.0229 22.2487 18.0219 20.529 18.0219C19.1951 18.0219 18.9245 19.3915 18.8702 20.0062V24.5806C18.8702 24.8212 18.6751 25.0162 18.4345 25.0162H16.3411C16.1005 25.0162 15.9054 24.8212 15.9054 24.5806V16.0489C15.9054 15.8083 16.1005 15.6132 16.3411 15.6132H18.4345C18.6751 15.6132 18.8702 15.8083 18.8702 16.0489V16.7866C19.3648 16.0443 20.0999 15.4713 21.665 15.4713C25.1308 15.4713 25.1109 18.7093 25.1109 20.4883V24.5806Z" fill="#0077B7"/>
</svg>
