<svg width="186" height="35" viewBox="0 0 186 35" fill="none" xmlns="http://www.w3.org/2000/svg">
<path d="M75.4584 33.0005V24.6779C75.4584 23.8815 75.4584 23.193 75.4584 22.6125C75.4584 22.0185 75.4584 21.5258 75.4584 21.1343C75.4584 20.5808 75.4247 20.034 75.3572 19.4941C75.3032 18.9541 75.1682 18.4546 74.9522 17.9956C74.7497 17.5231 74.4324 17.1519 74.0004 16.8819C73.5685 16.5984 72.9812 16.4566 72.2387 16.4566C71.5502 16.4566 70.9563 16.6051 70.4568 16.9021C69.9573 17.1856 69.5455 17.5839 69.2215 18.0968C68.9111 18.5963 68.6816 19.1768 68.5331 19.8383C68.3846 20.4863 68.3103 21.168 68.3103 21.8835L66.5891 20.466C66.5891 18.6436 66.9199 17.0304 67.5813 15.6264C68.2428 14.2089 69.1811 13.102 70.396 12.3055C71.6245 11.4955 73.0757 11.0905 74.7497 11.0905C76.5451 11.0905 77.9424 11.4752 78.9413 12.2447C79.9538 13.0007 80.6625 14.0132 81.0675 15.2822C81.486 16.5376 81.6953 17.9281 81.6953 19.4536C81.6953 20.034 81.6953 20.817 81.6953 21.8025C81.6953 22.788 81.6953 23.9692 81.6953 25.3462V33.0005H75.4584ZM62.033 33.0005V11.4955H68.3103V33.0005H62.033ZM88.8231 33.0005V24.6982C88.8231 23.8747 88.8231 23.166 88.8231 22.572C88.8231 21.978 88.8231 21.4853 88.8231 21.0938C88.8231 20.4998 88.7894 19.9328 88.7219 19.3928C88.6544 18.8393 88.5126 18.3398 88.2966 17.8943C88.0806 17.4489 87.7566 17.0979 87.3246 16.8414C86.8927 16.5849 86.3054 16.4566 85.5629 16.4566C84.8745 16.4566 84.2805 16.6051 83.781 16.9021C83.295 17.1856 82.8967 17.5771 82.5863 18.0766C82.2758 18.5761 82.0463 19.1431 81.8978 19.7776C81.7628 20.412 81.6953 21.0735 81.6953 21.762L79.9741 20.3648C79.9741 18.5693 80.2981 16.9764 80.946 15.5859C81.6075 14.1954 82.539 13.102 83.7405 12.3055C84.9555 11.4955 86.4067 11.0905 88.0941 11.0905C89.8491 11.0905 91.2328 11.4617 92.2453 12.2042C93.2713 12.9467 94.0003 13.9389 94.4322 15.1809C94.8777 16.4094 95.1005 17.7863 95.1005 19.3118C95.1005 19.9193 95.1005 20.7023 95.1005 21.6608C95.1005 22.6192 95.1005 23.787 95.1005 25.1639V33.0005H88.8231Z" fill="#1E2432"/>
<path d="M105.473 33.446C103.907 33.446 102.51 33.1963 101.281 32.6968C100.066 32.1973 99.1146 31.475 98.4261 30.5301C97.7377 29.5851 97.3934 28.4376 97.3934 27.0876C97.3934 25.5622 97.8119 24.3202 98.6489 23.3617C99.4859 22.4032 100.593 21.6743 101.97 21.1748C103.36 20.6618 104.866 20.3243 106.485 20.1623C108.848 19.9328 110.475 19.7236 111.366 19.5346C112.27 19.3456 112.722 19.0148 112.722 18.5423C112.722 18.5288 112.722 18.5153 112.722 18.5018C112.722 17.7053 112.338 17.0776 111.568 16.6186C110.812 16.1596 109.752 15.9301 108.389 15.9301C106.944 15.9301 105.837 16.1934 105.068 16.7199C104.312 17.2329 103.934 18.0226 103.934 19.0891H97.7579C97.7579 17.3611 98.2236 15.9031 99.1551 14.7152C100.1 13.5272 101.376 12.6295 102.982 12.022C104.589 11.401 106.404 11.0905 108.429 11.0905C110.319 11.0905 112.068 11.3807 113.674 11.9612C115.281 12.5282 116.57 13.3854 117.542 14.5329C118.527 15.6804 119.02 17.1384 119.02 18.9068C119.02 19.1903 119.02 19.4738 119.02 19.7573C119.02 20.0273 119.02 20.304 119.02 20.5875V28.2014C119.02 28.7549 119.033 29.2881 119.06 29.8011C119.101 30.3006 119.182 30.7596 119.303 31.1781C119.438 31.6505 119.607 32.042 119.81 32.3525C120.012 32.663 120.181 32.879 120.316 33.0005H114.14C114.045 32.906 113.897 32.7103 113.694 32.4133C113.505 32.1163 113.343 31.772 113.208 31.3805C113.046 30.9081 112.925 30.4356 112.844 29.9631C112.776 29.4771 112.743 28.9101 112.743 28.2621L114.039 29.1531C113.661 30.0441 113.046 30.8136 112.196 31.4615C111.359 32.096 110.36 32.5888 109.199 32.9398C108.051 33.2773 106.809 33.446 105.473 33.446ZM107.154 28.7481C108.139 28.7481 109.057 28.5726 109.908 28.2216C110.772 27.8571 111.474 27.2901 112.014 26.5207C112.554 25.7512 112.824 24.7454 112.824 23.5035V21.3368L114.383 22.8555C113.492 23.1795 112.459 23.4495 111.285 23.6655C110.124 23.868 108.963 24.03 107.802 24.1515C106.425 24.2865 105.392 24.5227 104.704 24.8602C104.029 25.1842 103.691 25.7377 103.691 26.5207C103.691 27.2631 103.981 27.8234 104.562 28.2014C105.142 28.5659 106.006 28.7481 107.154 28.7481Z" fill="#1E2432"/>
<path d="M132.089 33.446C131.266 33.446 130.415 33.3718 129.538 33.2233C128.674 33.0883 127.864 32.8115 127.108 32.393C126.366 31.961 125.765 31.3333 125.306 30.5098C124.847 29.6863 124.617 28.5996 124.617 27.2496C124.617 26.9526 124.617 26.6489 124.617 26.3384C124.617 26.0279 124.617 25.7174 124.617 25.4069V16.3554H119.656V11.4955H121.053C121.863 11.4955 122.505 11.4617 122.977 11.3942C123.463 11.3267 123.821 11.158 124.05 10.888C124.293 10.6045 124.449 10.1658 124.516 9.57178C124.584 8.97779 124.617 8.16106 124.617 7.12158V4.40815H130.915V11.4955H137.172V16.3554H130.915V24.0907C130.915 24.3337 130.915 24.5699 130.915 24.7994C130.915 25.0289 130.915 25.2517 130.915 25.4677C130.915 26.3992 131.023 27.1551 131.239 27.7356C131.468 28.3161 132.029 28.6064 132.92 28.6064C133.365 28.6064 133.784 28.5659 134.175 28.4849C134.58 28.4039 134.884 28.3229 135.086 28.2419V32.96C134.803 33.0815 134.405 33.1895 133.892 33.284C133.379 33.392 132.778 33.446 132.089 33.446Z" fill="#1E2432"/>
<path d="M149.677 33.4865C147.315 33.4865 145.242 33.014 143.461 32.069C141.679 31.1106 140.295 29.7808 139.309 28.0799C138.337 26.3789 137.851 24.4147 137.851 22.1873C137.851 19.9328 138.337 17.9821 139.309 16.3351C140.295 14.6747 141.679 13.3854 143.461 12.4675C145.242 11.5495 147.315 11.0905 149.677 11.0905C151.446 11.0905 153.012 11.3537 154.375 11.8802C155.738 12.3932 156.879 13.075 157.797 13.9254C158.715 14.7759 159.41 15.7074 159.883 16.7199C160.355 17.7323 160.592 18.7381 160.592 19.7371C160.592 19.7506 160.592 19.7776 160.592 19.8181C160.592 19.8451 160.592 19.8721 160.592 19.8991H154.375C154.375 19.8181 154.368 19.7438 154.355 19.6763C154.355 19.5953 154.341 19.5143 154.314 19.4333C154.206 18.8663 153.97 18.3331 153.606 17.8336C153.241 17.3341 152.728 16.9291 152.067 16.6186C151.419 16.2946 150.609 16.1326 149.637 16.1326C148.597 16.1326 147.666 16.3621 146.842 16.8211C146.032 17.2801 145.391 17.9618 144.918 18.8663C144.446 19.7573 144.21 20.8643 144.21 22.1873C144.21 23.4832 144.446 24.6037 144.918 25.5487C145.391 26.4802 146.032 27.1956 146.842 27.6951C147.666 28.1946 148.597 28.4444 149.637 28.4444C150.703 28.4444 151.574 28.2824 152.249 27.9584C152.924 27.6209 153.43 27.1754 153.768 26.6219C154.105 26.0549 154.308 25.4339 154.375 24.7589H160.592C160.592 25.7579 160.355 26.7771 159.883 27.8166C159.424 28.8426 158.735 29.7808 157.817 30.6313C156.913 31.4818 155.779 32.1703 154.416 32.6968C153.052 33.2233 151.473 33.4865 149.677 33.4865Z" fill="#1E2432"/>
<path d="M178.038 33.0005V25.3462C178.038 25.0762 178.038 24.7049 178.038 24.2325C178.038 23.76 178.038 23.2807 178.038 22.7947C178.038 22.3087 178.038 21.9173 178.038 21.6203C178.038 19.9733 177.741 18.7043 177.147 17.8133C176.553 16.9089 175.467 16.4566 173.887 16.4566C172.861 16.4566 171.997 16.6659 171.295 17.0844C170.593 17.4894 170.06 18.0631 169.695 18.8056C169.344 19.5481 169.169 20.4188 169.169 21.4178L167.346 20.1623C167.346 18.3668 167.731 16.7941 168.501 15.4442C169.27 14.0807 170.33 13.0142 171.68 12.2447C173.043 11.4752 174.616 11.0905 176.398 11.0905C179.03 11.0905 181.008 11.8667 182.331 13.4192C183.654 14.9582 184.316 17.1046 184.316 19.8586C184.316 20.5605 184.316 21.4043 184.316 22.3897C184.316 23.3752 184.316 24.5159 184.316 25.8119V33.0005H178.038ZM162.892 33.0005V1.35046H169.169V33.0005H162.892Z" fill="#1E2432"/>
<path d="M32.799 3.17588C34.1607 0.817346 37.565 0.81735 38.9267 3.17589L53.3704 28.1932C54.7322 30.5518 53.03 33.5 50.3066 33.5H21.4191C18.6957 33.5 16.9935 30.5518 18.3552 28.1932L32.799 3.17588Z" fill="#0099FF"/>
<path fill-rule="evenodd" clip-rule="evenodd" d="M24.6403 14.5371L20.2207 6.97798C19.0202 4.92466 16.0189 4.92466 14.8184 6.97797L2.0844 28.7578C0.883891 30.8111 2.38453 33.3778 4.78556 33.3778H17.6668C16.3859 32.0527 15.8845 29.7026 16.8156 28.0899L24.6403 14.5371Z" fill="#1B48BB"/>
</svg>
