<svg width="180" height="34" viewBox="0 0 180 34" fill="none" xmlns="http://www.w3.org/2000/svg">
<g clip-path="url(#clip0)">
<path d="M61.0996 33.0997V11.7817H66.3789V14.5719C67.0748 13.595 67.958 12.8255 69.0286 12.2635C70.0992 11.7014 71.3237 11.4204 72.702 11.4204C74.4417 11.4204 75.8134 11.7951 76.8171 12.5445C77.8208 13.2805 78.5434 14.2574 78.985 15.4752C79.6407 14.244 80.5507 13.2604 81.715 12.5244C82.8793 11.7884 84.2576 11.4204 85.8501 11.4204C87.5095 11.4204 88.8478 11.7616 89.8648 12.4441C90.8952 13.1266 91.638 14.0634 92.093 15.2544C92.5613 16.4454 92.7955 17.7903 92.7955 19.2892V33.0997H87.5162V20.8348C87.5162 20.0854 87.4493 19.3427 87.3155 18.6067C87.1817 17.8706 86.8605 17.2617 86.352 16.78C85.8568 16.2848 85.0539 16.0373 83.9431 16.0373C82.8592 16.0373 81.996 16.3183 81.3537 16.8804C80.7247 17.429 80.2697 18.1316 79.9887 18.9881C79.721 19.8445 79.5872 20.7211 79.5872 21.6177V33.0997H74.3481V20.875C74.3481 20.1657 74.2811 19.4364 74.1473 18.687C74.0135 17.9376 73.6923 17.3086 73.1838 16.8001C72.6887 16.2915 71.8924 16.0373 70.7951 16.0373C69.7245 16.0373 68.868 16.3183 68.2257 16.8804C67.5833 17.429 67.1149 18.145 66.8205 19.0282C66.5261 19.9114 66.3789 20.8348 66.3789 21.7983V33.0997H61.0996Z" fill="white"/>
<path d="M103.375 33.5413C100.993 33.5413 99.0524 32.9859 97.5535 31.8752C96.0681 30.7511 95.3254 29.1854 95.3254 27.178C95.3254 25.7193 95.7202 24.5216 96.5097 23.5849C97.3127 22.6347 98.3899 21.9054 99.7415 21.3969C101.093 20.8883 102.592 20.5538 104.238 20.3932C106.674 20.1523 108.373 19.9248 109.337 19.7107C110.314 19.4832 110.802 19.1219 110.802 18.6267V18.5866C110.802 17.6498 110.38 16.9272 109.537 16.4187C108.694 15.9101 107.503 15.6559 105.964 15.6559C104.345 15.6559 103.1 15.9436 102.231 16.519C101.374 17.0945 100.946 17.9911 100.946 19.2089H95.7269C95.7269 17.5361 96.1685 16.1243 97.0517 14.9734C97.9483 13.8091 99.1728 12.9259 100.725 12.3237C102.277 11.7215 104.037 11.4204 106.004 11.4204C107.824 11.4204 109.497 11.6947 111.023 12.2434C112.562 12.7921 113.793 13.6218 114.716 14.7325C115.64 15.8432 116.101 17.2283 116.101 18.8877V28.6032C116.101 29.1117 116.115 29.6136 116.142 30.1087C116.182 30.5905 116.255 31.0254 116.362 31.4135C116.496 31.8551 116.657 32.2231 116.844 32.5175C117.031 32.7986 117.179 32.9926 117.286 33.0997H112.067C111.973 33.006 111.839 32.8253 111.665 32.5577C111.505 32.2767 111.357 31.9555 111.224 31.5942C111.13 31.3265 111.056 31.0455 111.003 30.7511C110.213 31.6209 109.149 32.3034 107.811 32.7986C106.486 33.2937 105.007 33.5413 103.375 33.5413ZM104.66 29.3861C105.757 29.3861 106.774 29.1987 107.711 28.824C108.661 28.4493 109.417 27.8739 109.979 27.0977C110.554 26.3082 110.842 25.2978 110.842 24.0666V23.063C110.053 23.2771 109.183 23.4577 108.233 23.6049C107.282 23.7388 106.332 23.8525 105.382 23.9462C103.803 24.1068 102.612 24.3878 101.809 24.7893C101.02 25.1774 100.625 25.8264 100.625 26.7364C100.625 28.5029 101.97 29.3861 104.66 29.3861Z" fill="white"/>
<path d="M128.483 33.5011C127.72 33.5011 126.944 33.4275 126.154 33.2803C125.378 33.1465 124.655 32.8789 123.986 32.4774C123.33 32.0625 122.802 31.467 122.4 30.6909C121.999 29.9147 121.798 28.8909 121.798 27.6196V15.9971H116.76V11.7817H118.807C119.731 11.7817 120.4 11.7215 120.815 11.601C121.243 11.4672 121.51 11.146 121.617 10.6375C121.738 10.129 121.798 9.2993 121.798 8.14842V4.75601H127.098V11.7817H133.441V15.9971H127.098V26.0138C127.098 27.0174 127.211 27.8204 127.439 28.4226C127.68 29.0114 128.255 29.3058 129.165 29.3058C129.593 29.3058 129.995 29.2656 130.369 29.1854C130.758 29.1051 131.045 29.0248 131.233 28.9445V33.0796C130.965 33.1733 130.59 33.2669 130.109 33.3606C129.64 33.4543 129.098 33.5011 128.483 33.5011Z" fill="white"/>
<path d="M145.571 33.5413C143.309 33.5413 141.315 33.0796 139.589 32.1562C137.876 31.2328 136.531 29.9348 135.554 28.262C134.577 26.5892 134.089 24.6287 134.089 22.3805C134.089 20.1456 134.577 18.2052 135.554 16.5592C136.531 14.9132 137.876 13.6485 139.589 12.7653C141.315 11.8687 143.309 11.4204 145.571 11.4204C147.244 11.4204 148.729 11.668 150.027 12.1631C151.339 12.6582 152.443 13.3207 153.339 14.1504C154.236 14.9667 154.912 15.87 155.367 16.8603C155.835 17.8506 156.069 18.8275 156.069 19.791V19.9516H150.83C150.83 19.8713 150.824 19.7977 150.81 19.7308C150.797 19.6505 150.783 19.5702 150.77 19.4899C150.596 18.4728 150.067 17.603 149.184 16.8804C148.301 16.1577 147.077 15.7964 145.511 15.7964C143.825 15.7964 142.393 16.3518 141.215 17.4625C140.051 18.5598 139.469 20.1992 139.469 22.3805C139.469 24.5484 140.051 26.2212 141.215 27.3988C142.393 28.5765 143.825 29.1653 145.511 29.1653C147.291 29.1653 148.595 28.7638 149.425 27.9609C150.255 27.1579 150.716 26.2011 150.81 25.0904H156.069C156.069 26.4152 155.668 27.7267 154.865 29.0248C154.075 30.3228 152.898 31.4001 151.332 32.2566C149.78 33.113 147.859 33.5413 145.571 33.5413Z" fill="white"/>
<path d="M158.631 33.0997V1.72493H163.911V14.5518C164.714 13.5749 165.724 12.8121 166.942 12.2635C168.159 11.7014 169.524 11.4204 171.037 11.4204C173.619 11.4204 175.593 12.1899 176.958 13.7288C178.323 15.2544 179.006 17.3822 179.006 20.1122V33.0997H173.726V21.5173C173.726 19.7508 173.379 18.3992 172.683 17.4625C172 16.5123 170.829 16.0373 169.17 16.0373C167.497 16.0373 166.199 16.519 165.276 17.4826C164.366 18.4327 163.911 19.6706 163.911 21.1961V33.0997H158.631Z" fill="white"/>
<path d="M31.5974 2.40399C32.9764 0.0155404 36.4238 0.0155453 37.8028 2.404L52.4297 27.7386C53.8087 30.1271 52.085 33.1127 49.3271 33.1127H20.0731C17.3152 33.1127 15.5915 30.1271 16.9704 27.7386L31.5974 2.40399Z" fill="white"/>
<path fill-rule="evenodd" clip-rule="evenodd" d="M23.3353 13.9092L18.8596 6.25418C17.6439 4.17483 14.6045 4.17482 13.3888 6.25418L0.493252 28.3102C-0.722488 30.3896 0.797182 32.9888 3.22866 32.9888H16.2732C14.9761 31.6469 14.4684 29.2671 15.4113 27.6339L23.3353 13.9092Z" fill="white"/>
</g>
<defs>
<clipPath id="clip0">
<rect width="178.94" height="32.9286" fill="white" transform="translate(0.0653687 0.612656)"/>
</clipPath>
</defs>
</svg>
