<svg width="178" height="36" viewBox="0 0 178 36" fill="none" xmlns="http://www.w3.org/2000/svg">
<path d="M60.0797 32.6677V11.3497H65.359V14.1399C66.0549 13.163 66.9381 12.3936 68.0087 11.8315C69.0793 11.2695 70.3038 10.9884 71.6821 10.9884C73.4218 10.9884 74.7935 11.3631 75.7972 12.1125C76.8009 12.8486 77.5235 13.8255 77.9651 15.0433C78.6208 13.8121 79.5308 12.8285 80.6951 12.0925C81.8594 11.3564 83.2377 10.9884 84.8302 10.9884C86.4896 10.9884 87.8279 11.3297 88.8449 12.0122C89.8753 12.6947 90.6181 13.6314 91.0731 14.8224C91.5414 16.0135 91.7756 17.3584 91.7756 18.8572V32.6677H86.4963V20.4029C86.4963 19.6534 86.4294 18.9107 86.2956 18.1747C86.1618 17.4387 85.8406 16.8298 85.3321 16.348C84.8369 15.8529 84.034 15.6053 82.9233 15.6053C81.8393 15.6053 80.9761 15.8863 80.3338 16.4484C79.7048 16.9971 79.2498 17.6996 78.9688 18.5561C78.7011 19.4126 78.5673 20.2891 78.5673 21.1857V32.6677H73.3282V20.443C73.3282 19.7337 73.2613 19.0044 73.1274 18.255C72.9936 17.5056 72.6724 16.8766 72.1639 16.3681C71.6688 15.8596 70.8725 15.6053 69.7752 15.6053C68.7046 15.6053 67.8481 15.8863 67.2058 16.4484C66.5634 16.9971 66.095 17.713 65.8006 18.5962C65.5062 19.4795 65.359 20.4029 65.359 21.3664V32.6677H60.0797Z" fill="#323232"/>
<path d="M102.355 33.1093C99.9729 33.1093 98.0325 32.554 96.5336 31.4432C95.0482 30.3191 94.3055 28.7534 94.3055 26.746C94.3055 25.2874 94.7003 24.0897 95.4898 23.1529C96.2928 22.2028 97.37 21.4734 98.7216 20.9649C100.073 20.4564 101.572 20.1218 103.218 19.9612C105.654 19.7204 107.353 19.4929 108.317 19.2787C109.294 19.0512 109.782 18.6899 109.782 18.1948V18.1546C109.782 17.2179 109.361 16.4952 108.517 15.9867C107.674 15.4782 106.483 15.2239 104.944 15.2239C103.325 15.2239 102.081 15.5116 101.211 16.0871C100.354 16.6625 99.9261 17.5591 99.9261 18.7769H94.707C94.707 17.1041 95.1486 15.6923 96.0318 14.5414C96.9284 13.3772 98.1529 12.4939 99.7052 11.8917C101.258 11.2895 103.017 10.9884 104.985 10.9884C106.805 10.9884 108.477 11.2628 110.003 11.8114C111.542 12.3601 112.773 13.1898 113.696 14.3005C114.62 15.4113 115.081 16.7963 115.081 18.4557V28.1713C115.081 28.6798 115.095 29.1816 115.122 29.6768C115.162 30.1585 115.235 30.5935 115.342 30.9815C115.476 31.4232 115.637 31.7912 115.824 32.0856C116.012 32.3666 116.159 32.5606 116.266 32.6677H111.047C110.953 32.574 110.819 32.3934 110.645 32.1257C110.485 31.8447 110.337 31.5235 110.204 31.1622C110.11 30.8946 110.036 30.6135 109.983 30.3191C109.193 31.189 108.129 31.8715 106.791 32.3666C105.466 32.8617 103.988 33.1093 102.355 33.1093ZM103.64 28.9541C104.737 28.9541 105.754 28.7668 106.691 28.3921C107.641 28.0174 108.397 27.4419 108.959 26.6658C109.535 25.8762 109.822 24.8658 109.822 23.6347V22.631C109.033 22.8451 108.163 23.0258 107.213 23.173C106.263 23.3068 105.312 23.4206 104.362 23.5142C102.783 23.6748 101.592 23.9558 100.789 24.3573C99.9997 24.7454 99.6049 25.3944 99.6049 26.3044C99.6049 28.0709 100.95 28.9541 103.64 28.9541Z" fill="#323232"/>
<path d="M127.463 33.0692C126.7 33.0692 125.924 32.9956 125.134 32.8484C124.358 32.7145 123.635 32.4469 122.966 32.0454C122.311 31.6306 121.782 31.0351 121.38 30.2589C120.979 29.4827 120.778 28.459 120.778 27.1877V15.5652H115.74V11.3497H117.787C118.711 11.3497 119.38 11.2895 119.795 11.1691C120.223 11.0353 120.491 10.7141 120.598 10.2056C120.718 9.69704 120.778 8.86733 120.778 7.71646V4.32405H126.078V11.3497H132.421V15.5652H126.078V25.5818C126.078 26.5855 126.191 27.3884 126.419 27.9906C126.66 28.5794 127.235 28.8738 128.145 28.8738C128.573 28.8738 128.975 28.8337 129.35 28.7534C129.738 28.6731 130.025 28.5928 130.213 28.5125V32.6476C129.945 32.7413 129.57 32.835 129.089 32.9287C128.62 33.0223 128.078 33.0692 127.463 33.0692Z" fill="#323232"/>
<path d="M144.551 33.1093C142.29 33.1093 140.296 32.6476 138.569 31.7243C136.856 30.8009 135.511 29.5028 134.534 27.83C133.558 26.1572 133.069 24.1967 133.069 21.9485C133.069 19.7137 133.558 17.7732 134.534 16.1272C135.511 14.4812 136.856 13.2166 138.569 12.3333C140.296 11.4367 142.29 10.9884 144.551 10.9884C146.224 10.9884 147.709 11.236 149.007 11.7311C150.319 12.2263 151.423 12.8887 152.32 13.7184C153.216 14.5347 153.892 15.438 154.347 16.4283C154.815 17.4186 155.05 18.3955 155.05 19.359V19.5196H149.81C149.81 19.4393 149.804 19.3657 149.79 19.2988C149.777 19.2185 149.764 19.1382 149.75 19.0579C149.576 18.0409 149.048 17.171 148.164 16.4484C147.281 15.7257 146.057 15.3644 144.491 15.3644C142.805 15.3644 141.373 15.9198 140.195 17.0305C139.031 18.1279 138.449 19.7672 138.449 21.9485C138.449 24.1164 139.031 25.7892 140.195 26.9669C141.373 28.1445 142.805 28.7333 144.491 28.7333C146.271 28.7333 147.576 28.3318 148.405 27.5289C149.235 26.726 149.697 25.7691 149.79 24.6584H155.05C155.05 25.9833 154.648 27.2947 153.845 28.5928C153.056 29.8909 151.878 30.9682 150.312 31.8246C148.76 32.6811 146.839 33.1093 144.551 33.1093Z" fill="#323232"/>
<path d="M157.611 32.6677V1.29297H162.891V14.1199C163.694 13.143 164.704 12.3802 165.922 11.8315C167.14 11.2695 168.505 10.9884 170.017 10.9884C172.6 10.9884 174.573 11.7579 175.938 13.2969C177.303 14.8224 177.986 16.9502 177.986 19.6802V32.6677H172.707V21.0853C172.707 19.3189 172.359 17.9673 171.663 17.0305C170.98 16.0804 169.809 15.6053 168.15 15.6053C166.477 15.6053 165.179 16.0871 164.256 17.0506C163.346 18.0007 162.891 19.2386 162.891 20.7642V32.6677H157.611Z" fill="#323232"/>
<path fill-rule="evenodd" clip-rule="evenodd" d="M23.6002 14.0731L18.8411 5.93336C17.6254 3.854 14.586 3.854 13.3703 5.93336L0.474758 27.9894C-0.740982 30.0688 0.778688 32.668 3.21017 32.668H16.2885C15.0361 31.6118 14.5586 29.7336 15.4868 28.126L23.6002 14.0731Z" fill="#1B48BB"/>
<path d="M36.6408 2.82873C35.1196 0.194015 31.3167 0.194008 29.7956 2.82873L15.7018 27.2399C14.1806 29.8746 16.0821 33.168 19.1244 33.168H47.3119C50.3543 33.168 52.2557 29.8746 50.7346 27.2399L36.6408 2.82873Z" fill="#0099FF" stroke="white"/>
</svg>
