<svg width="80" height="80" viewBox="0 0 80 80" fill="none" xmlns="http://www.w3.org/2000/svg">
<g clip-path="url(#clip0)">
<path d="M19.398 35.8277C19.383 35.9236 19.3658 36.0216 19.3465 36.1223C18.6839 39.5242 16.4171 40.6994 13.5219 40.6994H12.0478C11.6938 40.6994 11.3954 40.9565 11.3403 41.3057L10.5855 46.0922L10.3718 47.449C10.3633 47.5028 10.3666 47.5579 10.3813 47.6103C10.3961 47.6627 10.4221 47.7114 10.4575 47.7528C10.4929 47.7942 10.5368 47.8275 10.5863 47.8503C10.6358 47.8732 10.6896 47.885 10.7441 47.885H13.3586C13.6682 47.885 13.9312 47.6601 13.9799 47.3547L14.0056 47.2219L14.4979 44.098L14.5295 43.9266C14.5777 43.6202 14.8412 43.3953 15.1508 43.3953H15.5419C18.0749 43.3953 20.0579 42.3668 20.6374 39.3908C20.8795 38.1476 20.7542 37.1095 20.1136 36.3794C19.9105 36.1536 19.668 35.9666 19.398 35.8277Z" fill="#C2C2C2" fill-opacity="0.5"/>
<path d="M31.8038 35.336H28.1406C28.0193 35.3359 27.902 35.3792 27.8098 35.4579C27.7175 35.5367 27.6565 35.6458 27.6376 35.7656L26.156 45.1592C26.1492 45.2028 26.1519 45.2473 26.164 45.2897C26.176 45.3322 26.1971 45.3715 26.2258 45.405C26.2546 45.4385 26.2902 45.4654 26.3303 45.4838C26.3704 45.5022 26.414 45.5117 26.4581 45.5116H28.207C28.3283 45.5117 28.4457 45.4684 28.5379 45.3895C28.6302 45.3106 28.6912 45.2014 28.71 45.0815L29.1095 42.5479C29.1283 42.4281 29.1892 42.3189 29.2814 42.2401C29.3735 42.1612 29.4907 42.1179 29.612 42.1178H30.7716C33.1847 42.1178 34.5774 40.9501 34.9411 38.6361C35.105 37.6237 34.9481 36.8283 34.474 36.2712C33.9534 35.6595 33.0299 35.336 31.8038 35.336ZM32.2265 38.7668C32.0261 40.0813 31.0218 40.0813 30.0507 40.0813H29.4979L29.8857 37.6264C29.897 37.5546 29.9337 37.4892 29.9889 37.4419C30.0442 37.3947 30.1145 37.3688 30.1873 37.3688H30.4406C31.1021 37.3688 31.7262 37.3688 32.0486 37.7459C32.2409 37.9708 32.2998 38.3051 32.2265 38.7668ZM42.754 38.7245H40.9998C40.9271 38.7245 40.8567 38.7504 40.8014 38.7977C40.7462 38.8449 40.7095 38.9103 40.6982 38.9821L40.6205 39.4728L40.4979 39.2949C40.1181 38.7438 39.2712 38.5595 38.426 38.5595C36.4875 38.5595 34.8318 40.0277 34.5094 42.0873C34.3417 43.1146 34.5801 44.097 35.1629 44.7821C35.6974 45.412 36.4623 45.6745 37.3724 45.6745C38.9343 45.6745 39.8005 44.6701 39.8005 44.6701L39.7223 45.1576C39.7153 45.2011 39.7178 45.2457 39.7298 45.2882C39.7417 45.3307 39.7627 45.3701 39.7913 45.4037C39.8199 45.4373 39.8555 45.4643 39.8955 45.4829C39.9356 45.5014 39.9791 45.511 40.0233 45.5111H41.6034C41.7248 45.5111 41.8422 45.4678 41.9344 45.389C42.0266 45.3101 42.0876 45.2009 42.1064 45.081L43.0545 39.0769C43.0615 39.0335 43.0589 38.989 43.047 38.9466C43.0351 38.9042 43.0142 38.8648 42.9856 38.8313C42.957 38.7978 42.9215 38.7709 42.8815 38.7525C42.8416 38.734 42.798 38.7245 42.754 38.7245ZM40.3088 42.1387C40.1395 43.1409 39.3441 43.8136 38.3296 43.8136C37.8202 43.8136 37.4131 43.6503 37.1517 43.3407C36.8924 43.0332 36.7939 42.5956 36.8764 42.1081C37.0344 41.1145 37.8432 40.4198 38.8422 40.4198C39.3403 40.4198 39.7453 40.5853 40.012 40.8976C40.2793 41.2131 40.3854 41.6534 40.3088 42.1387ZM52.0967 38.7245H50.3339C50.2508 38.7246 50.1689 38.745 50.0954 38.7839C50.022 38.8229 49.9591 38.8791 49.9123 38.9478L47.481 42.5292L46.4505 39.0876C46.4188 38.9827 46.3542 38.8907 46.2663 38.8253C46.1783 38.7599 46.0716 38.7245 45.962 38.7245H44.2297C44.1811 38.7244 44.1331 38.7358 44.0898 38.758C44.0465 38.7801 44.0092 38.8123 43.9808 38.8518C43.9525 38.8913 43.934 38.937 43.9269 38.9851C43.9197 39.0332 43.9242 39.0823 43.9399 39.1284L45.8816 44.8265L44.0561 47.4035C44.0237 47.4492 44.0045 47.5029 44.0005 47.5588C43.9966 47.6147 44.0081 47.6706 44.0338 47.7204C44.0596 47.7702 44.0985 47.812 44.1464 47.8411C44.1942 47.8702 44.2492 47.8856 44.3052 47.8856H46.0659C46.1481 47.8857 46.2291 47.8659 46.302 47.8278C46.3748 47.7898 46.4374 47.7346 46.4842 47.6671L52.3474 39.2039C52.3792 39.1581 52.3978 39.1045 52.4013 39.0489C52.4047 38.9932 52.3929 38.9377 52.3671 38.8883C52.3413 38.8389 52.3024 38.7976 52.2548 38.7687C52.2071 38.7398 52.1524 38.7245 52.0967 38.7245Z" fill="#C2C2C2"/>
<path d="M57.9328 35.3359H54.269C54.1478 35.336 54.0307 35.3793 53.9386 35.458C53.8464 35.5368 53.7855 35.6458 53.7666 35.7655L52.285 45.1591C52.2781 45.2026 52.2807 45.2471 52.2927 45.2895C52.3047 45.3319 52.3257 45.3712 52.3543 45.4047C52.3829 45.4382 52.4184 45.4651 52.4584 45.4836C52.4984 45.502 52.542 45.5115 52.586 45.5115H54.4661C54.551 45.5114 54.633 45.481 54.6974 45.4259C54.7618 45.3707 54.8044 45.2943 54.8175 45.2105L55.238 42.5478C55.2568 42.428 55.3177 42.3189 55.4098 42.24C55.5019 42.1612 55.6192 42.1178 55.7404 42.1177H56.8996C59.3132 42.1177 60.7053 40.95 61.0696 38.636C61.234 37.6237 61.076 36.8282 60.6019 36.2712C60.0818 35.6595 59.1589 35.3359 57.9328 35.3359ZM58.3555 38.7667C58.1557 40.0812 57.1513 40.0812 56.1797 40.0812H55.6274L56.0158 37.6263C56.0269 37.5545 56.0634 37.489 56.1186 37.4418C56.1738 37.3945 56.2441 37.3686 56.3168 37.3687H56.5701C57.2311 37.3687 57.8557 37.3687 58.1782 37.7458C58.3704 37.9708 58.4288 38.305 58.3555 38.7667ZM68.8825 38.7244H67.1293C67.0566 38.7242 66.9862 38.7501 66.931 38.7974C66.8757 38.8447 66.8393 38.9102 66.8283 38.982L66.7506 39.4727L66.6274 39.2949C66.2476 38.7437 65.4013 38.5594 64.5561 38.5594C62.6176 38.5594 60.9624 40.0276 60.64 42.0872C60.4728 43.1145 60.7101 44.0969 61.2929 44.782C61.8286 45.4119 62.5924 45.6744 63.5024 45.6744C65.0644 45.6744 65.9305 44.67 65.9305 44.67L65.8523 45.1575C65.8453 45.2012 65.8479 45.2458 65.8599 45.2884C65.8719 45.331 65.893 45.3704 65.9217 45.404C65.9504 45.4377 65.9861 45.4646 66.0263 45.4831C66.0665 45.5016 66.1102 45.5111 66.1544 45.511H67.734C67.8553 45.5109 67.9725 45.4676 68.0647 45.3887C68.1568 45.3098 68.2177 45.2007 68.2365 45.0809L69.1851 39.0769C69.1918 39.0332 69.189 38.9887 69.1769 38.9462C69.1648 38.9038 69.1436 38.8645 69.1149 38.831C69.0861 38.7975 69.0504 38.7707 69.0103 38.7523C68.9702 38.7339 68.9266 38.7244 68.8825 38.7244ZM66.4372 42.1386C66.2691 43.1408 65.4725 43.8136 64.458 43.8136C63.9497 43.8136 63.5416 43.6502 63.2802 43.3406C63.0209 43.0331 62.9234 42.5955 63.0048 42.1081C63.1639 41.1144 63.9717 40.4197 64.9706 40.4197C65.4688 40.4197 65.8737 40.5852 66.1405 40.8975C66.4089 41.213 66.5149 41.6533 66.4372 42.1386ZM70.9506 35.5936L69.447 45.1591C69.4401 45.2026 69.4428 45.2471 69.4547 45.2895C69.4667 45.3319 69.4877 45.3712 69.5163 45.4047C69.5449 45.4382 69.5804 45.4651 69.6205 45.4836C69.6605 45.502 69.704 45.5115 69.7481 45.5115H71.2596C71.5109 45.5115 71.724 45.3294 71.7626 45.0814L73.2453 35.6884C73.2522 35.6448 73.2495 35.6003 73.2376 35.5579C73.2256 35.5155 73.2046 35.4761 73.176 35.4426C73.1474 35.409 73.1119 35.3821 73.0719 35.3636C73.0319 35.3451 72.9883 35.3355 72.9442 35.3354H71.2516C71.1789 35.3356 71.1087 35.3618 71.0536 35.4091C70.9984 35.4564 70.9619 35.5218 70.9506 35.5936Z" fill="#C2C2C2"/>
<path d="M10.9428 47.3371L11.223 45.5577L10.5989 45.5432H7.61914L9.68994 32.413C9.6961 32.3728 9.71648 32.3363 9.74735 32.3099C9.77823 32.2836 9.81754 32.2692 9.85813 32.2694H14.8825C16.5505 32.2694 17.7016 32.6165 18.3026 33.3016C18.5843 33.623 18.7637 33.9588 18.8505 34.3284C18.9416 34.7162 18.9432 35.1796 18.8543 35.7447L18.8478 35.7859V36.148L19.1296 36.3076C19.3447 36.4166 19.538 36.564 19.7 36.7426C19.9411 37.0174 20.097 37.3666 20.1628 37.7806C20.2309 38.2065 20.2084 38.7132 20.097 39.2869C19.9684 39.9468 19.7606 40.5215 19.4799 40.9918C19.2323 41.4131 18.8993 41.778 18.5023 42.0631C18.1295 42.3277 17.6866 42.5286 17.1857 42.6571C16.7004 42.7836 16.1471 42.8473 15.5402 42.8473H15.1492C14.8696 42.8473 14.598 42.948 14.3849 43.1285C14.172 43.311 14.0307 43.563 13.9863 43.8398L13.9569 44L13.4619 47.1362L13.4394 47.2514C13.4336 47.2878 13.4234 47.306 13.4084 47.3183C13.3938 47.3302 13.3757 47.3368 13.357 47.3371H10.9428Z" fill="#C2C2C2" fill-opacity="0.5"/>
<path d="M18.7044 35.5512C18.4928 35.49 18.2776 35.4423 18.06 35.4082C17.6301 35.3422 17.1955 35.3105 16.7606 35.3134H12.8225C12.6726 35.3133 12.5277 35.3668 12.4138 35.4643C12.3 35.5617 12.2247 35.6967 12.2017 35.8448L11.3639 41.1509L11.3398 41.3057C11.3659 41.1368 11.4516 40.9828 11.5814 40.8715C11.7112 40.7603 11.8765 40.6992 12.0474 40.6993H13.5215C16.4167 40.6993 18.6835 39.5236 19.3461 36.1222C19.3659 36.0215 19.3825 35.9235 19.3975 35.8276C19.2227 35.736 19.0405 35.6591 18.8528 35.5979C18.8036 35.5815 18.7541 35.566 18.7044 35.5512Z" fill="#C2C2C2"/>
<path d="M12.2004 35.8448C12.2232 35.6967 12.2984 35.5616 12.4123 35.4642C12.5263 35.3668 12.6713 35.3135 12.8212 35.314H16.7593C17.2258 35.314 17.6613 35.3445 18.0587 35.4088C18.3277 35.4511 18.5929 35.5143 18.852 35.5979C19.0475 35.6627 19.2291 35.7393 19.3968 35.8277C19.5939 34.5705 19.3952 33.7146 18.7154 32.9395C17.9661 32.0862 16.6136 31.7209 14.8829 31.7209H9.85858C9.50505 31.7209 9.20349 31.978 9.14885 32.3278L7.05609 45.593C7.04634 45.6546 7.05005 45.7175 7.06696 45.7776C7.08387 45.8376 7.11358 45.8932 7.15405 45.9407C7.19451 45.9881 7.24477 46.0262 7.30138 46.0524C7.35798 46.0785 7.41957 46.0921 7.48193 46.0922H10.5838L11.3627 41.1509L12.2004 35.8448Z" fill="#C2C2C2"/>
</g>
<defs>
<clipPath id="clip0">
<rect width="66.2857" height="17.632" fill="white" transform="translate(7 31)"/>
</clipPath>
</defs>
</svg>
