<svg width="80" height="80" viewBox="0 0 80 80" fill="none" xmlns="http://www.w3.org/2000/svg">
<g clip-path="url(#clip0)">
<path d="M15.5068 35.6491C15.4892 35.7613 15.4691 35.876 15.4466 35.9938C14.6713 39.9745 12.0187 41.3497 8.63097 41.3497H6.90607C6.49177 41.3497 6.14265 41.6505 6.07809 42.0592L5.19496 47.6601L4.94487 49.2477C4.93491 49.3107 4.93871 49.3751 4.95602 49.4365C4.97333 49.4978 5.00373 49.5547 5.04513 49.6032C5.08653 49.6517 5.13795 49.6906 5.19584 49.7174C5.25373 49.7441 5.31673 49.7579 5.38049 49.7579H8.4398C8.80208 49.7579 9.10983 49.4947 9.16687 49.1374L9.19695 48.982L9.77297 45.3266L9.80995 45.126C9.86636 44.7675 10.1747 44.5043 10.537 44.5043H10.9946C13.9586 44.5043 16.279 43.3009 16.9571 39.8185C17.2404 38.3637 17.0938 37.149 16.3441 36.2947C16.1065 36.0304 15.8228 35.8117 15.5068 35.6491V35.6491Z" fill="#C2C2C2" fill-opacity="0.5"/>
<path d="M30.0232 35.0737H25.7367C25.5948 35.0736 25.4575 35.1242 25.3496 35.2164C25.2417 35.3086 25.1702 35.4362 25.1481 35.5764L23.4144 46.5683C23.4065 46.6193 23.4096 46.6714 23.4238 46.7211C23.4379 46.7707 23.4626 46.8167 23.4962 46.8559C23.5298 46.8951 23.5715 46.9266 23.6184 46.9481C23.6653 46.9696 23.7163 46.9808 23.7679 46.9807H25.8144C25.9564 46.9808 26.0937 46.9301 26.2017 46.8378C26.3096 46.7455 26.381 46.6177 26.4029 46.4774L26.8705 43.5127C26.8925 43.3725 26.9638 43.2448 27.0715 43.1525C27.1793 43.0602 27.3165 43.0095 27.4584 43.0094H28.8154C31.6391 43.0094 33.2687 41.643 33.6943 38.9353C33.8861 37.7507 33.7024 36.8199 33.1477 36.1681C32.5385 35.4523 31.4579 35.0737 30.0232 35.0737V35.0737ZM30.5177 39.0883C30.2833 40.6264 29.1081 40.6264 27.9718 40.6264H27.3249L27.7787 37.7538C27.792 37.6698 27.8348 37.5933 27.8995 37.538C27.9642 37.4827 28.0465 37.4524 28.1316 37.4524H28.4281C29.2021 37.4524 29.9323 37.4524 30.3097 37.8936C30.5347 38.1569 30.6036 38.548 30.5177 39.0883V39.0883ZM42.8365 39.0387H40.7838C40.6987 39.0387 40.6164 39.0691 40.5517 39.1244C40.487 39.1796 40.4442 39.2562 40.4309 39.3402L40.34 39.9144L40.1965 39.7063C39.7521 39.0613 38.7612 38.8457 37.7721 38.8457C35.5038 38.8457 33.5664 40.5637 33.1891 42.9737C32.9929 44.1758 33.2718 45.3254 33.9538 46.127C34.5793 46.8641 35.4743 47.1712 36.5392 47.1712C38.3669 47.1712 39.3804 45.996 39.3804 45.996L39.2889 46.5664C39.2808 46.6174 39.2838 46.6695 39.2977 46.7193C39.3117 46.769 39.3362 46.8151 39.3697 46.8544C39.4032 46.8937 39.4448 46.9253 39.4916 46.947C39.5385 46.9687 39.5895 46.98 39.6412 46.9801H41.4902C41.6322 46.9801 41.7695 46.9294 41.8774 46.8372C41.9854 46.7449 42.0567 46.617 42.0787 46.4768L43.1881 39.4512C43.1963 39.4003 43.1933 39.3482 43.1794 39.2986C43.1655 39.249 43.141 39.203 43.1075 39.1638C43.0741 39.1246 43.0325 39.0931 42.9857 39.0715C42.939 39.0499 42.888 39.0387 42.8365 39.0387V39.0387ZM39.9752 43.0338C39.7772 44.2066 38.8464 44.9938 37.6593 44.9938C37.0632 44.9938 36.5869 44.8026 36.281 44.4403C35.9776 44.0806 35.8623 43.5685 35.9588 42.9981C36.1437 41.8354 37.0902 41.0225 38.2591 41.0225C38.842 41.0225 39.3159 41.2162 39.628 41.5816C39.9408 41.9508 40.0649 42.466 39.9752 43.0338V43.0338ZM53.7688 39.0387H51.7061C51.6088 39.0389 51.513 39.0628 51.4271 39.1083C51.3411 39.1539 51.2676 39.2197 51.2128 39.3001L48.3678 43.4908L47.1619 39.4637C47.1249 39.3409 47.0493 39.2332 46.9464 39.1567C46.8434 39.0802 46.7186 39.0388 46.5903 39.0387H44.5633C44.5064 39.0386 44.4503 39.052 44.3996 39.078C44.349 39.1039 44.3052 39.1415 44.2721 39.1877C44.2389 39.234 44.2172 39.2874 44.2089 39.3437C44.2006 39.4 44.2058 39.4575 44.2242 39.5113L46.4963 46.179L44.3602 49.1945C44.3222 49.2479 44.2997 49.3108 44.2951 49.3762C44.2905 49.4416 44.304 49.5071 44.3341 49.5653C44.3642 49.6236 44.4097 49.6724 44.4658 49.7065C44.5218 49.7406 44.5861 49.7586 44.6517 49.7586H46.7119C46.8081 49.7587 46.9029 49.7355 46.9881 49.691C47.0734 49.6464 47.1466 49.5819 47.2014 49.5029L54.0621 39.5997C54.0993 39.5461 54.1211 39.4834 54.1252 39.4183C54.1293 39.3532 54.1155 39.2883 54.0852 39.2305C54.055 39.1727 54.0095 39.1242 53.9538 39.0905C53.898 39.0567 53.834 39.0388 53.7688 39.0387V39.0387Z" fill="#C2C2C2"/>
<path d="M60.5995 35.0737H56.3123C56.1705 35.0737 56.0334 35.1244 55.9256 35.2166C55.8178 35.3087 55.7465 35.4363 55.7244 35.5764L53.9907 46.5682C53.9827 46.6191 53.9857 46.6712 53.9997 46.7208C54.0137 46.7704 54.0383 46.8164 54.0718 46.8556C54.1053 46.8948 54.1468 46.9263 54.1937 46.9479C54.2405 46.9695 54.2914 46.9806 54.343 46.9806H56.543C56.6422 46.9805 56.7382 46.9449 56.8135 46.8804C56.8889 46.8158 56.9388 46.7264 56.9541 46.6284L57.4462 43.5127C57.4681 43.3725 57.5394 43.2447 57.6472 43.1525C57.755 43.0602 57.8922 43.0094 58.0341 43.0094H59.3904C62.2147 43.0094 63.8437 41.643 64.2699 38.9353C64.4623 37.7507 64.2774 36.8199 63.7227 36.168C63.1141 35.4523 62.0342 35.0737 60.5995 35.0737V35.0737ZM61.094 39.0882C60.8602 40.6263 59.685 40.6263 58.548 40.6263H57.9018L58.3562 37.7538C58.3693 37.6698 58.412 37.5932 58.4766 37.5379C58.5412 37.4826 58.6235 37.4522 58.7085 37.4523H59.005C59.7784 37.4523 60.5092 37.4523 60.8866 37.8936C61.1116 38.1568 61.1799 38.5479 61.094 39.0882V39.0882ZM73.4121 39.0387H71.3607C71.2756 39.0385 71.1933 39.0688 71.1286 39.1241C71.064 39.1794 71.0213 39.2561 71.0084 39.3402L70.9176 39.9143L70.7734 39.7062C70.329 39.0613 69.3387 38.8457 68.3496 38.8457C66.0813 38.8457 64.1446 40.5637 63.7672 42.9736C63.5717 44.1758 63.8494 45.3253 64.5313 46.127C65.1581 46.8641 66.0519 47.1712 67.1168 47.1712C68.9445 47.1712 69.958 45.996 69.958 45.996L69.8664 46.5663C69.8583 46.6174 69.8613 46.6697 69.8753 46.7195C69.8893 46.7693 69.914 46.8155 69.9476 46.8548C69.9812 46.8942 70.023 46.9258 70.07 46.9474C70.1171 46.969 70.1682 46.9801 70.22 46.98H72.0683C72.2102 46.9799 72.3474 46.9292 72.4552 46.8369C72.563 46.7446 72.6343 46.6169 72.6562 46.4767L73.7663 39.4511C73.7741 39.4001 73.7709 39.3479 73.7567 39.2983C73.7425 39.2486 73.7177 39.2026 73.6841 39.1634C73.6504 39.1243 73.6087 39.0928 73.5618 39.0713C73.5148 39.0498 73.4638 39.0386 73.4121 39.0387V39.0387ZM70.5509 43.0338C70.3541 44.2065 69.4221 44.9937 68.2349 44.9937C67.6401 44.9937 67.1625 44.8026 66.8566 44.4403C66.5533 44.0805 66.4392 43.5684 66.5345 42.9981C66.7206 41.8354 67.6658 41.0225 68.8348 41.0225C69.4177 41.0225 69.8915 41.2161 70.2037 41.5816C70.5177 41.9507 70.6418 42.4659 70.5509 43.0338V43.0338ZM75.8321 35.3752L74.0728 46.5682C74.0647 46.6191 74.0678 46.6712 74.0818 46.7208C74.0958 46.7704 74.1204 46.8164 74.1538 46.8556C74.1873 46.8948 74.2289 46.9263 74.2757 46.9479C74.3225 46.9695 74.3735 46.9806 74.425 46.9806H76.1938C76.4878 46.9806 76.7372 46.7675 76.7823 46.4773L78.5173 35.4861C78.5253 35.4352 78.5223 35.3831 78.5083 35.3334C78.4943 35.2838 78.4697 35.2377 78.4362 35.1985C78.4028 35.1593 78.3612 35.1277 78.3144 35.1061C78.2676 35.0844 78.2166 35.0732 78.165 35.0731H76.1844C76.0994 35.0734 76.0172 35.1039 75.9527 35.1593C75.8881 35.2146 75.8454 35.2912 75.8321 35.3752V35.3752Z" fill="#C2C2C2"/>
<path d="M5.61378 49.1168L5.94159 47.0346L5.21139 47.0177H1.72461L4.14774 31.6534C4.15496 31.6064 4.1788 31.5637 4.21493 31.5328C4.25105 31.502 4.29706 31.4852 4.34455 31.4854H10.2238C12.1756 31.4854 13.5225 31.8916 14.2258 32.6932C14.5554 33.0693 14.7654 33.4623 14.8669 33.8948C14.9735 34.3486 14.9754 34.8907 14.8713 35.552L14.8638 35.6002V36.0239L15.1935 36.2107C15.4452 36.3382 15.6714 36.5107 15.861 36.7197C16.1431 37.0412 16.3255 37.4499 16.4026 37.9344C16.4822 38.4327 16.4558 39.0256 16.3255 39.6969C16.175 40.4691 15.9319 41.1416 15.6034 41.6919C15.3136 42.1849 14.924 42.6119 14.4595 42.9455C14.0233 43.2551 13.505 43.4901 12.9189 43.6406C12.3511 43.7885 11.7036 43.8631 10.9934 43.8631H10.5359C10.2087 43.8631 9.89094 43.9809 9.64148 44.1921C9.39237 44.4056 9.22712 44.7006 9.17515 45.0245L9.14068 45.2119L8.56154 48.8817L8.53521 49.0165C8.52832 49.0591 8.51641 49.0804 8.49886 49.0948C8.48186 49.1087 8.46065 49.1165 8.43869 49.1168H5.61378Z" fill="#C2C2C2" fill-opacity="0.5"/>
<path d="M14.6957 35.3256C14.4482 35.254 14.1963 35.1981 13.9417 35.1583C13.4386 35.081 12.9301 35.0439 12.4211 35.0473H7.81305C7.63768 35.0472 7.46805 35.1098 7.33482 35.2238C7.20159 35.3379 7.11355 35.4958 7.08662 35.6691L6.10633 41.878L6.07812 42.0591C6.10866 41.8615 6.20894 41.6813 6.3608 41.5511C6.51267 41.421 6.7061 41.3495 6.9061 41.3496H8.631C12.0188 41.3496 14.6713 39.9738 15.4466 35.9938C15.4698 35.8759 15.4892 35.7612 15.5068 35.6491C15.3022 35.5418 15.089 35.4518 14.8694 35.3802C14.8118 35.3611 14.7539 35.3429 14.6957 35.3256V35.3256Z" fill="#C2C2C2"/>
<path d="M7.08441 35.6692C7.11111 35.4958 7.19911 35.3378 7.33241 35.2238C7.4657 35.1099 7.63546 35.0475 7.81085 35.048H12.4189C12.9649 35.048 13.4744 35.0837 13.9395 35.159C14.2542 35.2084 14.5646 35.2824 14.8678 35.3802C15.0965 35.456 15.309 35.5457 15.5052 35.6491C15.7359 34.178 15.5033 33.1764 14.7079 32.2695C13.8311 31.271 12.2485 30.8436 10.2233 30.8436H4.34412C3.93045 30.8436 3.57757 31.1444 3.51364 31.5537L1.0648 47.0759C1.0534 47.148 1.05774 47.2217 1.07753 47.2919C1.09731 47.3621 1.13208 47.4273 1.17943 47.4828C1.22678 47.5383 1.28559 47.5829 1.35183 47.6135C1.41806 47.6441 1.49013 47.66 1.5631 47.6601H5.19278L6.10412 41.878L7.08441 35.6692Z" fill="#C2C2C2"/>
</g>
<defs>
<clipPath id="clip0">
<rect width="77.5639" height="20.632" fill="white" transform="translate(1 30)"/>
</clipPath>
</defs>
</svg>
