<svg width="80" height="80" viewBox="0 0 80 80" fill="none" xmlns="http://www.w3.org/2000/svg">
<path d="M71.7839 35.8993C71.2047 34.2433 69.6262 33.0541 67.7722 33.0541H67.7335C66.5282 33.0541 65.4421 33.5557 64.6689 34.361C63.8944 33.5557 62.8082 33.0541 61.6043 33.0541H61.5655C60.5061 33.0541 59.5377 33.442 58.7939 34.0841V33.7577C58.7685 33.4326 58.501 33.1772 58.1705 33.1772H55.3267C54.9789 33.1772 54.698 33.4581 54.698 33.8072V49.2504C54.698 49.5995 54.9789 49.8805 55.3267 49.8805H58.1705C58.4876 49.8805 58.7484 49.6437 58.7899 49.3374L58.7886 38.2509C58.7883 38.2138 58.79 38.1768 58.7939 38.1399C58.8394 37.6449 59.2019 37.2383 59.7744 37.1875H60.2987C60.5382 37.2088 60.7402 37.2931 60.8993 37.4202C61.1468 37.6168 61.2846 37.9192 61.2846 38.2509L61.2953 49.2825C61.2953 49.6317 61.5775 49.9139 61.924 49.9139H64.7678C65.1036 49.9139 65.3764 49.6464 65.3925 49.3133L65.3912 38.2362C65.3898 37.8723 65.5584 37.5433 65.854 37.348C65.9998 37.2543 66.1751 37.1915 66.377 37.1727H66.9014C67.5167 37.2262 67.8886 37.6931 67.8872 38.2362L67.8979 49.2531C67.8979 49.6022 68.1802 49.8831 68.5266 49.8831H71.3705C71.7169 49.8831 71.9992 49.6022 71.9992 49.2531V37.4042C71.9992 36.5962 71.9082 36.2524 71.7838 35.8993H71.7839ZM52.5315 33.2174H50.905V30.5742C50.9049 30.2572 50.6481 30.0004 50.3311 30.0004C50.2936 30.0004 50.2575 30.0057 50.2227 30.0124C48.4196 30.5073 48.7807 33.0047 45.4888 33.2174H45.1691C45.1209 33.2174 45.0754 33.2241 45.0313 33.2335H45.0287L45.0313 33.2348C44.7504 33.2977 44.5391 33.5465 44.5391 33.8461V36.69C44.5391 37.0364 44.8213 37.3187 45.1691 37.3187H46.8853L46.8826 49.3776C46.8826 49.7214 47.1609 49.9996 47.5046 49.9996H50.3164C50.6588 49.9996 50.9371 49.7214 50.9371 49.3776L50.9384 37.3187H52.5315C52.878 37.3187 53.1602 37.0364 53.1602 36.69V33.8461C53.1602 33.4997 52.878 33.2175 52.5315 33.2175" fill="#C2C2C2"/>
<path d="M42.3005 33.2174H39.4567C39.1103 33.2174 38.8293 33.4997 38.8293 33.8461V39.7265C38.8226 40.0903 38.5284 40.3819 38.1632 40.3819H36.9727C36.6035 40.3819 36.3052 40.0849 36.3052 39.7157L36.2945 33.8461C36.2945 33.4997 36.0122 33.2175 35.6658 33.2175H32.8219C32.4741 33.2175 32.1933 33.4997 32.1933 33.8461V40.2909C32.1933 42.7388 33.9389 44.4845 36.3881 44.4845C36.3881 44.4845 38.226 44.4845 38.2822 44.4952C38.614 44.5327 38.8721 44.8109 38.8721 45.1533C38.8721 45.4917 38.6193 45.7686 38.2916 45.8101C38.2756 45.8128 38.2609 45.8168 38.2435 45.8195L34.0847 45.8342C33.7369 45.8342 33.456 46.1164 33.456 46.4629V49.3054C33.456 49.6532 33.7369 49.9341 34.0847 49.9341H38.7344C41.1849 49.9341 42.9292 48.1898 42.9292 45.7406V33.8461C42.9292 33.4997 42.6483 33.2175 42.3005 33.2175V33.2174ZM14.774 38.4283V40.1833C14.774 40.5511 14.4757 40.8508 14.1079 40.8508L12.3034 40.8521V37.3354H14.1079C14.4757 37.3354 14.774 37.6323 14.774 38.0015V38.4283ZM15.0242 33.2167H8.80806C8.46695 33.2167 8.19141 33.4936 8.19141 33.8334V36.6197C8.19141 36.6251 8.19273 36.6304 8.19273 36.6358C8.19273 36.6492 8.19141 36.6626 8.19141 36.6746V49.286C8.19141 49.6284 8.44822 49.908 8.76662 49.916H11.6639C12.0104 49.916 12.2926 49.6351 12.2926 49.2874L12.3033 44.9654H15.0241C17.3008 44.9654 18.8873 43.3856 18.8873 41.0995V37.088C18.8873 34.8019 17.3008 33.2168 15.0241 33.2168L15.0242 33.2167ZM26.5736 45.1048V45.5489C26.5736 45.585 26.5683 45.6198 26.5629 45.6532C26.5562 45.6846 26.5473 45.7154 26.5361 45.7455C26.4478 45.9943 26.1991 46.1749 25.9034 46.1749H24.7196C24.3504 46.1749 24.0495 45.894 24.0495 45.5489V45.0125C24.0495 45.0058 24.0481 44.9991 24.0481 44.9924L24.0495 43.5651V43.1183L24.0508 43.1143C24.0521 42.7705 24.3504 42.4923 24.7196 42.4923H25.9034C26.2739 42.4923 26.5736 42.7719 26.5736 43.1184L26.5736 45.1048ZM26.1215 33.2331H22.1754C21.8263 33.2331 21.5441 33.4979 21.5441 33.823V34.9292C21.5441 34.9359 21.5454 34.9439 21.5454 34.9506C21.5454 34.9586 21.544 34.9666 21.544 34.9747V36.4903C21.544 36.8341 21.8437 37.1149 22.2129 37.1149H25.9703C26.2673 37.1618 26.5027 37.3785 26.5362 37.7169V38.0834C26.5027 38.4058 26.27 38.6412 25.9864 38.6679H24.1257C21.6511 38.6679 19.8881 40.312 19.8881 42.6207V45.9274C19.8881 48.2229 21.4036 49.8561 23.8609 49.8561H29.0175C29.9432 49.8561 30.6936 49.1552 30.6936 48.2924V37.5015C30.6936 34.8851 29.3452 33.2331 26.1215 33.2331H26.1215Z" fill="#C2C2C2"/>
</svg>
