<svg width="117" height="24" viewBox="0 0 117 24" fill="none" xmlns="http://www.w3.org/2000/svg">
<path d="M97.7159 16.4749L102.04 9.01857L102.605 0.00143872L101.635 0L89.6582 20.6465L90.1645 21.5183L97.7159 16.4749ZM98.7401 18.222L90.6126 22.2843L91.1147 23.1588L114.978 23.2027L115.46 22.3684L107.313 18.2299L98.7401 18.222ZM104.544 0.0057542L103.504 0.00143872L104.018 9.01929L108.312 16.5008L115.904 21.6046L116.438 20.694L104.544 0.0057542Z" fill="#C2C2C2"/>
<path d="M70.7202 14.4765L70.718 17.5535C70.7116 21.1525 68.2431 23.17 64.7979 23.2678H64.0528C60.6062 23.1247 58.1615 21.1101 58.168 17.534V14.4571C58.1802 10.8501 60.6486 8.84847 64.1089 8.74994C64.2837 8.74706 64.6225 8.74994 64.7936 8.74994C68.2661 8.85998 70.7288 10.8976 70.7202 14.4765ZM64.2053 11.7355C62.8474 11.8103 61.5434 12.5108 61.5383 14.4693V17.5535C61.5326 19.4371 62.8344 20.1952 64.1938 20.2787C64.2628 20.2866 64.6052 20.2866 64.68 20.2823C66.0127 20.2082 67.3326 19.4839 67.3354 17.5621L67.3397 14.4765C67.3462 12.5396 66.0243 11.8146 64.6706 11.7355C64.5023 11.724 64.3614 11.724 64.2053 11.7355Z" fill="#C2C2C2"/>
<path d="M75.9173 14.8519C75.9173 14.8519 80.9772 9.09363 81.2786 8.77356L85.5077 8.78435L79.3596 15.7308L85.8105 22.8851L81.5252 22.8786L75.9116 16.6356L75.9008 22.8685L72.498 22.8621L72.5297 5.32336L75.9303 5.3284L75.9173 14.8519Z" fill="#C2C2C2"/>
<path d="M27.7948 16.9017L27.802 14.4196C27.8114 10.814 25.2919 8.79509 21.8409 8.67785L21.1907 8.67426C17.7168 8.78214 15.2469 10.7903 15.2448 14.3937L15.2383 17.4548C15.2318 20.8884 17.788 23.021 21.0922 23.1929C21.4432 23.1993 21.6266 23.1907 21.8625 23.1929C25.9996 23.1993 27.5467 21.1035 27.7365 18.7055L24.623 18.6976C24.5402 19.1514 24.3863 20.3159 21.7791 20.313C21.3216 20.3073 20.6873 20.1958 20.232 20.0462C18.2987 19.3981 18.6072 17.0124 18.6072 16.8822L27.7948 16.9017ZM18.6043 14.1635C18.6043 12.3093 19.8364 11.5872 21.2972 11.5296C21.4533 11.5253 21.6122 11.5217 21.7496 11.5318C23.2305 11.5937 24.469 12.3755 24.4654 14.1764V14.4152L18.5993 14.4102L18.6043 14.1635Z" fill="#C2C2C2"/>
<path d="M42.0494 16.9228L42.0545 14.4464C42.0638 10.8409 39.5422 8.82196 36.0884 8.69897H35.4432C31.9642 8.80614 29.4879 10.815 29.4821 14.4169L29.4785 17.4809C29.4721 20.9081 32.0261 23.0493 35.3353 23.219C35.6956 23.2255 35.8704 23.219 36.1092 23.219C40.2535 23.2255 41.7898 21.1246 41.9811 18.7331L38.8855 18.7209C38.7841 19.1762 38.6438 20.3392 36.0207 20.3349C35.5669 20.3305 34.939 20.2176 34.4909 20.0666C32.5403 19.4229 32.8604 17.0364 32.8582 16.9077L42.0494 16.9228ZM32.8489 14.1918C32.8539 12.3319 34.0917 11.6083 35.5417 11.5536C35.6942 11.5486 35.8596 11.5508 36.0028 11.558C37.4779 11.6169 38.7179 12.4002 38.7143 14.1983V14.4385L32.8453 14.4306L32.8489 14.1918Z" fill="#C2C2C2"/>
<path d="M50.5175 8.75014C48.9409 8.74583 47.8606 9.17594 47.2665 9.68444L47.2708 5.27765L43.8933 5.27261L43.8652 22.8113H44.455C44.455 22.8113 45.9554 21.972 46.0373 21.9432C46.2553 22.1741 47.734 23.2601 49.7796 23.2601C50.0399 23.263 50.2801 23.2824 50.534 23.2666C53.9519 23.1968 56.4282 21.0751 56.4361 17.5529L56.439 14.4926C56.4448 11.0481 53.9627 8.75302 50.5175 8.75014ZM53.055 17.5644C53.0535 19.4841 51.7201 20.2062 50.3931 20.2932C50.324 20.2932 49.9709 20.2904 49.9083 20.2868C48.5518 20.1954 47.25 19.4481 47.25 17.5594L47.2579 14.4767C47.2608 12.5118 48.5676 11.8227 49.9198 11.7336C50.0824 11.7213 50.2291 11.7163 50.3945 11.7343C51.7352 11.8263 53.0607 12.5341 53.0579 14.4861L53.055 17.5644Z" fill="#C2C2C2"/>
<path d="M14.8099 22.7599L8.31803 15.5171C8.64097 15.5358 8.96175 15.5488 9.28972 15.5488C11.5208 15.5516 14.2978 14.1441 14.3014 10.5716C14.3136 6.28781 10.757 5.21542 7.60526 5.21255L0.0359643 5.19385L0 22.7304L3.43006 22.739V14.9115L10.4657 22.7512L14.8099 22.7599ZM3.4502 8.19956L7.56355 8.21178C9.46306 8.21178 11.1439 8.81379 11.1439 10.6205C11.1389 12.4323 10.0895 13.081 7.55419 13.0688L3.43941 13.0659L3.4502 8.19956Z" fill="#C2C2C2"/>
</svg>
