<svg width="106" height="106" viewBox="0 0 106 106" fill="none" xmlns="http://www.w3.org/2000/svg">
<g filter="url(#filter0_d)">
<rect x="35" y="25" width="36" height="36" rx="18" fill="white"/>
</g>
<path d="M62 37.7314C61.3306 38.025 60.6174 38.2196 59.8737 38.3141C60.6388 37.8574 61.2226 37.1396 61.4971 36.2745C60.7839 36.6997 59.9964 37.0001 59.1571 37.1678C58.4799 36.4466 57.5146 36 56.4616 36C54.4186 36 52.7739 37.6583 52.7739 39.6911C52.7739 39.9836 52.7986 40.2649 52.8594 40.5326C49.7915 40.383 47.0769 38.9126 45.2533 36.6728C44.9349 37.2251 44.7481 37.8574 44.7481 38.538C44.7481 39.816 45.4062 40.9489 46.3872 41.6047C45.7944 41.5935 45.2127 41.4214 44.72 41.1502C44.72 41.1615 44.72 41.1761 44.72 41.1907C44.72 42.984 45.9991 44.4735 47.6765 44.8166C47.3761 44.8988 47.0487 44.9381 46.709 44.9381C46.4727 44.9381 46.2342 44.9246 46.0104 44.8751C46.4885 46.3365 47.8453 47.4109 49.4585 47.4457C48.203 48.4279 46.6089 49.0196 44.8831 49.0196C44.5805 49.0196 44.2902 49.0061 44 48.969C45.6346 50.0231 47.5719 50.625 49.661 50.625C56.4515 50.625 60.164 45 60.164 40.1242C60.164 39.9611 60.1584 39.8036 60.1505 39.6473C60.8829 39.1275 61.4982 38.4784 62 37.7314Z" fill="#03A9F4"/>
<defs>
<filter id="filter0_d" x="0" y="0" width="106" height="106" filterUnits="userSpaceOnUse" color-interpolation-filters="sRGB">
<feFlood flood-opacity="0" result="BackgroundImageFix"/>
<feColorMatrix in="SourceAlpha" type="matrix" values="0 0 0 0 0 0 0 0 0 0 0 0 0 0 0 0 0 0 127 0"/>
<feMorphology radius="5" operator="erode" in="SourceAlpha" result="effect1_dropShadow"/>
<feOffset dy="10"/>
<feGaussianBlur stdDeviation="20"/>
<feColorMatrix type="matrix" values="0 0 0 0 0.34902 0 0 0 0 0.4 0 0 0 0 0.517647 0 0 0 0.3 0"/>
<feBlend mode="normal" in2="BackgroundImageFix" result="effect1_dropShadow"/>
<feBlend mode="normal" in="SourceGraphic" in2="effect1_dropShadow" result="shape"/>
</filter>
</defs>
</svg>
